<?xml version="1.0" encoding="utf-8"?>
<!-- Generator: Adobe Illustrator 27.2.0, SVG Export Plug-In . SVG Version: 6.00 Build 0)  -->
<svg version="1.1" id="Layer_1" xmlns="http://www.w3.org/2000/svg" xmlns:xlink="http://www.w3.org/1999/xlink" x="0px" y="0px"
	 viewBox="0 0 72 20" style="enable-background:new 0 0 72 20;" xml:space="preserve">
<style type="text/css">
	.st0{fill:#D8D8D8;}
	.st1{fill:#133E5B;}
</style>
<g>
	<g>
		<g>
			<path class="st0" d="M29.6,3.3C29.6,3.3,29.6,3.3,29.6,3.3c0.1-0.1,0.1-0.1,0.2-0.1c0.6-0.2,1.3-0.4,2-0.5c1.5-0.2,2.9,0,4.2,0.7
				c0.8,0.4,1.6,1,2.2,1.8c0.5,0.6,0.9,1.2,1.1,2c0.2,0.5,0.1,1-0.2,1.4C39,8.7,39,8.8,39,8.9c0.2,0.2,0.3,0.5,0.5,0.7
				c0.3,0.6,0.1,1.2-0.5,1.6c-0.6,0.4-1.4,0.4-1.8-0.1c-0.2-0.2-0.2-0.2-0.4,0c-0.3,0.3-0.9,0.4-1.3,0.2c-0.6-0.3-0.8-1-0.5-1.6
				c0.1-0.2,0-0.3-0.1-0.4c-0.4-0.5-0.8-0.9-1.3-1.2C32,7.3,29.7,7.3,28,8.9c-1,1-1.6,2.1-1.5,3.5c0,1.1,0.4,2.2,1.1,3.1
				c0,0,0,0.1,0.1,0.1c0,0-0.1,0-0.1-0.1c-0.4-0.4-0.8-0.8-1.1-1.2c-0.6-0.8-1-1.7-1.1-2.7c-0.1-0.8-0.2-1.6-0.1-2.4
				c0.2-1.6,0.9-2.9,1.9-4.1c0.5-0.6,1.1-1.1,1.8-1.4C29.2,3.5,29.4,3.4,29.6,3.3C29.6,3.3,29.6,3.3,29.6,3.3z M34.5,7.4L34.5,7.4
				L34.5,7.4L34.5,7.4z"/>
			<path class="st0" d="M31.9,15.6c-0.1,0-0.1,0-0.2,0c-0.2-0.1-0.4-0.1-0.6-0.1c-0.2,0-0.3,0-0.2-0.2c0,0,0-0.1,0-0.1
				c0,0,0,0,0,0.1c0,0.1,0,0.2-0.1,0.3c0,0,0,0.1,0,0.1c-0.1,0-0.1-0.1-0.1-0.1c-0.1-0.2-0.2-0.5-0.3-0.7c-0.2-0.5-0.3-1-0.3-1.5
				c0-0.1,0-0.2,0.1-0.2c0.2,0,0.5,0,0.7,0c0.2,0,0.3,0.3,0.3,0.5c0,0.2-0.1,0.3-0.3,0.3c-0.1,0-0.2,0-0.2,0.1
				c-0.1,0.1-0.2,0-0.2,0.1c0.1,0,0.2,0,0.3,0c0,0,0.1,0,0.1,0c0.5-0.2,0.9,0,1.2,0.4c0.4,0.4,0.8,0.8,1.2,1.1
				c0.1,0.1,0.2,0.1,0.3,0.1c0.3-0.1,0.6-0.2,0.9-0.3c0,0,0.1,0,0.1-0.1c0,0-0.1,0-0.1,0c-0.3,0.1-0.6,0.2-0.8,0.3
				c-0.1,0-0.2,0-0.3-0.1c-0.2-0.3-0.5-0.5-0.7-0.8c-0.1-0.1,0-0.1,0.1-0.1c0.2,0,0.5-0.1,0.7-0.1c0.9-0.1,1.8-0.2,2.7,0.1
				c0.5,0.1,1,0.3,1.3,0.7c0.1,0.1,0.1,0.2,0,0.3c-0.2,0.2-0.3,0.4-0.5,0.5c-0.7,0.5-1.5,0.7-2.3,0.8c-0.4,0-0.8,0-1.1,0
				c-0.5,0-1.1-0.1-1.6-0.2c-0.3-0.1-0.6-0.1-0.7-0.5c0-0.1-0.1-0.2,0-0.2c0.1-0.1,0.1,0,0.2,0c0.4,0,0.8,0.1,1.2,0.1
				c0.3,0,0.5,0.1,0.7,0.3c0.1,0.1,0.2,0.2,0.2,0.2c0.1,0.1,0.2,0.1,0.4,0.1c0.2-0.1,0.3-0.2,0.5-0.3c0,0,0,0,0.1-0.1
				c0,0-0.1,0-0.1,0c-0.1,0.1-0.3,0.2-0.4,0.3c-0.1,0.1-0.2,0.1-0.3,0c-0.2-0.3-0.5-0.4-0.8-0.6c-0.4-0.2-0.8-0.4-1.1-0.8
				c-0.1-0.2-0.3-0.2-0.4-0.1c-0.1,0-0.1,0-0.1,0.1c0,0,0.1,0,0.1,0c0.2,0,0.3,0,0.4,0.2C31.4,15.4,31.7,15.5,31.9,15.6L31.9,15.6z
				 M34.6,15.8c0.3,0,0.5-0.1,0.8-0.1c0.1,0,0.1-0.1,0.2,0.1c0,0,0.1,0,0.1,0c0-0.2,0.2-0.1,0.3-0.1c0.4-0.1,0.7-0.1,1.1-0.2
				c0,0,0.1,0,0.1-0.1c0-0.1-0.1,0-0.1,0c-0.7,0-1.5,0-2.2,0c-0.1,0-0.4,0.2-0.4,0.4c0,0,0,0,0,0C34.5,15.8,34.5,15.8,34.6,15.8z"/>
			<path class="st0" d="M29.5,10.6C29.5,10.6,29.5,10.7,29.5,10.6c0.3,0.2,0.4,0.4,0.4,0.6c0.1,0.3,0.1,0.5,0.1,0.8
				c0,0.3-0.1,0.3-0.4,0.3c0,0-0.1,0-0.1,0c0,0-0.1,0-0.1,0c0,0,0,0.1,0.1,0.1c0.2,0.1,0.3,0.4,0.3,0.6c0,0.3,0,0.7,0.1,1
				c0.1,0.7,0.5,1.3,0.7,2c0.1,0.3,0.3,0.5,0.7,0.6c0,0,0.1,0,0.1,0.1c0,0-0.1,0-0.1,0c-0.2,0-0.1,0-0.1,0.1
				c0.1,0.1,0.1,0.2,0.2,0.3c0,0,0.1,0.1,0,0.1c0,0-0.1,0-0.1,0c0,0-0.1,0-0.1-0.1c0,0.1,0,0.1,0,0.1c0,0,0.1,0.1,0,0.1
				c0,0-0.1-0.1-0.1-0.1c0,0,0,0,0-0.1c0,0-0.1-0.1-0.1,0c0,0,0,0.1,0,0.1c0,0.1,0.1,0.1,0.1,0.1c-0.1,0-0.1-0.1-0.1-0.1
				c0,0,0-0.1-0.1-0.1c0,0-0.1-0.1-0.1-0.1c0,0,0,0.1,0,0.1c0,0,0,0.1,0,0.1c0,0,0-0.1-0.1-0.1c-0.2-0.3-0.3-0.7-0.5-1
				c-0.2-0.3-0.3-0.5-0.5-0.8c-0.2-0.2-0.3-0.5-0.4-0.8c0-0.1-0.1-0.2-0.1-0.3c-0.1-0.2-0.3-0.4-0.3-0.6c0,0,0,0,0-0.1
				c0,0,0,0.1,0,0.1c0,0.2,0.1,0.4,0.2,0.6c0.1,0.2,0.2,0.3,0.2,0.5c0,0.2,0.2,0.3,0.2,0.5c0.2,0.1,0.3,0.4,0.4,0.6
				c0,0,0.1,0.1,0,0.1c0,0-0.1,0-0.1,0c-0.2-0.1-0.5-0.2-0.7-0.3c-0.1,0-0.2,0-0.2-0.1c0-0.1,0.1-0.1,0.1-0.1
				c0.1-0.1,0.2-0.1,0.2-0.1c0-0.1-0.1,0-0.2,0c-0.1,0-0.1,0-0.1,0c-0.5,0.1-0.8-0.1-1-0.5c-0.1-0.3-0.2-0.6-0.3-1
				c-0.2-1,0-1.9,0.9-2.6c0.1,0,0.1-0.1,0.2,0c0,0,0,0.1,0.1,0.1c0.1,0,0-0.1,0-0.1c-0.1-0.4,0.1-0.6,0.4-0.7c0.1,0,0.1-0.1,0.2-0.1
				c0.6-0.6,1.3-1.1,2.2-1.3c0.2,0,0.4-0.1,0.5-0.2c0.1-0.1,0.2-0.1,0.4,0c0.1,0.1,0.2,0.1,0.3,0.2c0.1,0.1,0.1,0.1,0,0.2
				c-0.2,0.1-0.4,0.2-0.7,0.1c-0.1,0-0.2,0-0.3,0c-0.6,0.3-1.2,0.6-1.6,1.1c-0.1,0.1-0.1,0.2-0.3,0.1C29.8,10.6,29.7,10.6,29.5,10.6
				C29.5,10.6,29.5,10.6,29.5,10.6z"/>
			<path class="st0" d="M32.2,17.4c0.1,0,0.2,0,0.2,0c0.8,0,1.5-0.1,2.3-0.3c0.5-0.1,1-0.3,1.5-0.6c0,0,0.1,0,0.1-0.1
				c0,0-0.1,0-0.1,0c-1.2,0.4-2.4,0.6-3.6,0.6c-0.3,0-0.6,0-0.8-0.1c-0.1,0-0.2-0.1-0.1,0.1c0,0,0,0.1,0,0.1
				c-0.2,0.2,0.1,0.2,0.1,0.2C31.8,17.4,32,17.5,32.2,17.4C32.2,17.4,32.2,17.4,32.2,17.4C32.2,17.4,32.2,17.4,32.2,17.4
				C32.2,17.4,32.2,17.4,32.2,17.4z"/>
			<path class="st0" d="M28.6,16.2c0.5,0.2,1.1,0.3,1.7,0.5c0,0,0.1,0,0.1,0.1c0.1,0.1,0.2,0.3,0.2,0.4c0,0,0,0.1,0,0.1
				c0,0-0.1,0-0.1,0c-0.2-0.1-0.3-0.1-0.5-0.2C29.5,16.9,29,16.6,28.6,16.2C28.5,16.2,28.5,16.2,28.6,16.2
				C28.5,16.2,28.6,16.2,28.6,16.2z M30.2,17C30.2,17,30.2,17,30.2,17C30.2,17,30.2,17,30.2,17C30.2,17,30.2,17,30.2,17z"/>
		</g>
		<g>
			<path class="st1" d="M29.6,3.3C29.6,3.3,29.6,3.3,29.6,3.3c0.1-0.1,0.1-0.1,0.2-0.1c0.6-0.2,1.3-0.4,2-0.5c1.5-0.2,2.9,0,4.2,0.7
				c0.8,0.4,1.6,1,2.2,1.8c0.5,0.6,0.9,1.2,1.1,2c0.2,0.5,0.1,1-0.2,1.4C39,8.7,39,8.8,39,8.9c0.2,0.2,0.3,0.5,0.5,0.7
				c0.3,0.6,0.1,1.2-0.5,1.6c-0.6,0.4-1.4,0.4-1.8-0.1c-0.2-0.2-0.2-0.2-0.4,0c-0.3,0.3-0.9,0.4-1.3,0.2c-0.6-0.3-0.8-1-0.5-1.6
				c0.1-0.2,0-0.3-0.1-0.4c-0.4-0.5-0.8-0.9-1.3-1.2C32,7.3,29.7,7.3,28,8.9c-1,1-1.6,2.1-1.5,3.5c0,1.1,0.4,2.2,1.1,3.1
				c0,0,0,0.1,0.1,0.1c0,0-0.1,0-0.1-0.1c-0.4-0.4-0.8-0.8-1.1-1.2c-0.6-0.8-1-1.7-1.1-2.7c-0.1-0.8-0.2-1.6-0.1-2.4
				c0.2-1.6,0.9-2.9,1.9-4.1c0.5-0.6,1.1-1.1,1.8-1.4C29.2,3.5,29.4,3.4,29.6,3.3C29.6,3.3,29.6,3.3,29.6,3.3z M26.2,9.5
				c0,0,0-0.1,0-0.1C26.1,9.4,26.1,9.5,26.2,9.5c-0.3,0.5-0.4,1-0.4,1.5c0,0.5,0,1,0.1,1.4c0,0.1,0,0.1,0.1,0.2c0,0,0,0,0,0
				c0,0,0,0,0,0C25.9,11.6,25.9,10.6,26.2,9.5z M34.3,5.6c0,0.3-0.1,0.5-0.3,0.7c-0.1,0.1-0.1,0.2,0,0.3c0.2,0.3,0.4,0.5,0.7,0.6
				c0.4,0.1,0.8,0.1,1.2-0.2c0.1,0,0.1-0.1,0.2-0.2c0.1-0.1,0.1-0.2,0-0.3c-0.3-0.4-0.4-0.8-0.2-1.2c0,0,0-0.1,0.1-0.1
				c0,0,0,0.1,0,0.1c0,0.6,0.3,1,0.8,1.3c0.3,0.1,0.6,0.1,1,0c0,0,0.1-0.1,0.1,0c0,0,0,0.1-0.1,0.1c-0.2,0.2-0.4,0.3-0.7,0.3
				c-0.2,0-0.2,0.1-0.3,0.2c0,0.1,0,0.3,0,0.4c0,1,0.9,1.3,1.5,1.1c0.3-0.1,0.4-0.3,0.5-0.6c0.1-0.3,0.1-0.6,0-0.9
				c-0.2-0.7-0.6-1.3-1.1-1.9c-0.6-0.7-1.3-1.3-2.2-1.6c-0.9-0.3-1.8-0.4-2.7-0.4c-0.3,0-0.6,0.1-0.9,0.1l0,0l0,0
				c-0.1,0.1-0.3,0.1-0.5,0.1c-0.6,0.2-1.1,0.4-1.7,0.7c0,0-0.1,0-0.1,0.1c0,0.1,0.1,0,0.1,0C30.5,4.2,31.3,4.1,32,4
				c0.9-0.1,1.9,0,2.8,0.2c0.1,0,0.1,0,0.1,0.1c0,0-0.1,0-0.1,0c-1.1-0.1-2.3,0.1-3.3,0.5C30.7,5,30,5.4,29.3,5.9
				c0,0-0.1,0.1-0.1,0.1c0,0,0.1,0,0.1,0c0.8-0.4,1.7-0.7,2.6-0.8c0.2,0,0.5,0,0.6-0.3c0-0.1,0.1-0.1,0.2-0.1c0,0.1-0.1,0.1-0.1,0.2
				c-0.2,0.3-0.1,0.7,0.1,0.9c0.2,0.2,0.7,0.3,1,0.1C33.8,6,34,5.9,34.1,5.8C34.1,5.7,34.2,5.6,34.3,5.6L34.3,5.6z M28.8,7.7
				c0,0.1,0.1,0,0.2,0c0.7-0.3,1.5-0.5,2.2-0.5c1.7,0,3.1,0.6,4.1,1.9c0.1,0.2,0.2,0.1,0.3,0c0.3-0.3,0.3-0.3,0-0.6
				c-0.1-0.1-0.3-0.2-0.4-0.4c0,0-0.1,0,0-0.1c0,0,0.1,0,0.1,0c0.2,0.1,0.4,0.2,0.6,0.4c0.2,0.1,0.2,0.1,0.3-0.1
				c0.2-0.3,0.1-0.6,0.1-0.9c0-0.1-0.1,0-0.1,0c-0.3,0.2-0.6,0.3-1,0.3c-0.7,0-1.3-0.2-1.7-0.8c0-0.1-0.1-0.1-0.2-0.1
				c-1.5-0.1-3,0.1-4.3,0.8C28.9,7.7,28.8,7.7,28.8,7.7z M36.8,9.9c0.1,0,0.2,0.1,0.2,0.1c0.3,0,0.6,0,0.9-0.2c0,0,0.1-0.1,0.1,0
				c0,0,0,0.1,0,0.1c-0.2,0.2-0.4,0.3-0.7,0.3c-0.2,0-0.2,0.1-0.1,0.2c0.3,0.5,0.9,0.7,1.4,0.5c0.5-0.3,0.6-0.8,0.5-1.2
				c0-0.1-0.1-0.2-0.1-0.3C38.9,9,38.9,9,38.5,9.1c-0.7,0.1-1.3,0-1.8-0.5c-0.2-0.2-0.3-0.2-0.4,0.1c-0.2,0.3-0.1,0.6,0.1,0.8
				C36.5,9.7,36.7,9.8,36.8,9.9z M36.6,10.2C36.3,10,36.1,9.8,36,9.6c-0.1-0.1-0.1-0.1-0.2-0.1c-0.5,0.2-0.7,0.6-0.5,1
				c0.2,0.5,0.7,0.7,1.2,0.5c0.1,0,0.1-0.1,0.2-0.1C37,10.7,36.9,10.3,36.6,10.2z M29.3,7c0.7-0.3,1.3-0.5,2-0.6
				c0.3-0.1,0.7-0.1,1-0.1c0,0,0.1,0,0.1,0c0,0,0-0.1-0.1-0.1c0-0.1-0.1-0.1-0.1-0.2c-0.1-0.2-0.2-0.2-0.4-0.2
				C30.9,6.1,30,6.5,29.3,7C29.1,7,29.1,7,29.3,7C29.2,7,29.2,7,29.3,7z M27.1,6.9C27.1,7,27.1,7,27.1,6.9c0,0.1-0.1,0.2-0.1,0.2
				C27.2,7.2,27.2,7.1,27.1,6.9c0.3-0.3,0.7-0.6,1-0.9c0.3-0.3,0.7-0.5,1.1-0.7c0,0,0.1,0,0.1-0.1c0,0-0.1,0-0.1,0
				c-0.3,0.1-0.5,0.2-0.8,0.4C27.9,5.9,27.5,6.4,27.1,6.9z M27.3,8.1c0,0-0.1,0.1,0,0.1C27.3,8.2,27.3,8.1,27.3,8.1
				c0.3-0.2,0.5-0.5,0.7-0.8c0,0,0.1-0.1,0.1-0.1c0,0-0.1,0.1-0.1,0.1C27.7,7.5,27.5,7.8,27.3,8.1z M34.5,7.4L34.5,7.4L34.5,7.4
				L34.5,7.4z"/>
			<path class="st1" d="M31.9,15.6c-0.1,0-0.1,0-0.2,0c-0.2-0.1-0.4-0.1-0.6-0.1c-0.2,0-0.3,0-0.2-0.2c0,0,0-0.1,0-0.1
				c0,0,0,0,0,0.1c0,0.1,0,0.2-0.1,0.3c0,0,0,0.1,0,0.1c-0.1,0-0.1-0.1-0.1-0.1c-0.1-0.2-0.2-0.5-0.3-0.7c-0.2-0.5-0.3-1-0.3-1.5
				c0-0.1,0-0.2,0.1-0.2c0.2,0,0.5,0,0.7,0c0.2,0,0.3,0.3,0.3,0.5c0,0.2-0.1,0.3-0.3,0.3c-0.1,0-0.2,0-0.2,0.1
				c-0.1,0.1-0.2,0-0.2,0.1c0.1,0,0.2,0,0.3,0c0,0,0.1,0,0.1,0c0.5-0.2,0.9,0,1.2,0.4c0.4,0.4,0.8,0.8,1.2,1.1
				c0.1,0.1,0.2,0.1,0.3,0.1c0.3-0.1,0.6-0.2,0.9-0.3c0,0,0.1,0,0.1-0.1c0,0-0.1,0-0.1,0c-0.3,0.1-0.6,0.2-0.8,0.3
				c-0.1,0-0.2,0-0.3-0.1c-0.2-0.3-0.5-0.5-0.7-0.8c-0.1-0.1,0-0.1,0.1-0.1c0.2,0,0.5-0.1,0.7-0.1c0.9-0.1,1.8-0.2,2.7,0.1
				c0.5,0.1,1,0.3,1.3,0.7c0.1,0.1,0.1,0.2,0,0.3c-0.2,0.2-0.3,0.4-0.5,0.5c-0.7,0.5-1.5,0.7-2.3,0.8c-0.4,0-0.8,0-1.1,0
				c-0.5,0-1.1-0.1-1.6-0.2c-0.3-0.1-0.6-0.1-0.7-0.5c0-0.1-0.1-0.2,0-0.2c0.1-0.1,0.1,0,0.2,0c0.4,0,0.8,0.1,1.2,0.1
				c0.3,0,0.5,0.1,0.7,0.3c0.1,0.1,0.2,0.2,0.2,0.2c0.1,0.1,0.2,0.1,0.4,0.1c0.2-0.1,0.3-0.2,0.5-0.3c0,0,0,0,0.1-0.1
				c0,0-0.1,0-0.1,0c-0.1,0.1-0.3,0.2-0.4,0.3c-0.1,0.1-0.2,0.1-0.3,0c-0.2-0.3-0.5-0.4-0.8-0.6c-0.4-0.2-0.8-0.4-1.1-0.8
				c-0.1-0.2-0.3-0.2-0.4-0.1c-0.1,0-0.1,0-0.1,0.1c0,0,0.1,0,0.1,0c0.2,0,0.3,0,0.4,0.2C31.4,15.4,31.7,15.5,31.9,15.6L31.9,15.6z
				 M34.6,15.8c0.3,0,0.5-0.1,0.8-0.1c0.1,0,0.1-0.1,0.2,0.1c0,0,0.1,0,0.1,0c0-0.2,0.2-0.1,0.3-0.1c0.4-0.1,0.7-0.1,1.1-0.2
				c0,0,0.1,0,0.1-0.1c0-0.1-0.1,0-0.1,0c-0.7,0-1.5,0-2.2,0c-0.1,0-0.4,0.2-0.4,0.4c0,0,0,0,0,0C34.5,15.8,34.5,15.8,34.6,15.8z"/>
			<path class="st1" d="M29.5,10.6C29.5,10.6,29.5,10.7,29.5,10.6c0.3,0.2,0.4,0.4,0.4,0.6c0.1,0.3,0.1,0.5,0.1,0.8
				c0,0.3-0.1,0.3-0.4,0.3c0,0-0.1,0-0.1,0c0,0-0.1,0-0.1,0c0,0,0,0.1,0.1,0.1c0.2,0.1,0.3,0.4,0.3,0.6c0,0.3,0,0.7,0.1,1
				c0.1,0.7,0.5,1.3,0.7,2c0.1,0.3,0.3,0.5,0.7,0.6c0,0,0.1,0,0.1,0.1c0,0-0.1,0-0.1,0c-0.2,0-0.1,0-0.1,0.1
				c0.1,0.1,0.1,0.2,0.2,0.3c0,0,0.1,0.1,0,0.1c0,0-0.1,0-0.1,0c0,0-0.1,0-0.1-0.1c0,0.1,0,0.1,0,0.1c0,0,0.1,0.1,0,0.1
				c0,0-0.1-0.1-0.1-0.1c0,0,0,0,0-0.1c0,0-0.1-0.1-0.1,0c0,0,0,0.1,0,0.1c0,0.1,0.1,0.1,0.1,0.1c-0.1,0-0.1-0.1-0.1-0.1
				c0,0,0-0.1-0.1-0.1c0,0-0.1-0.1-0.1-0.1c0,0,0,0.1,0,0.1c0,0,0,0.1,0,0.1c0,0,0-0.1-0.1-0.1c-0.2-0.3-0.3-0.7-0.5-1
				c-0.2-0.3-0.3-0.5-0.5-0.8c-0.2-0.2-0.3-0.5-0.4-0.8c0-0.1-0.1-0.2-0.1-0.3c-0.1-0.2-0.3-0.4-0.3-0.6c0,0,0,0,0-0.1
				c0,0,0,0.1,0,0.1c0,0.2,0.1,0.4,0.2,0.6c0.1,0.2,0.2,0.3,0.2,0.5c0,0.2,0.2,0.3,0.2,0.5c0.2,0.1,0.3,0.4,0.4,0.6
				c0,0,0.1,0.1,0,0.1c0,0-0.1,0-0.1,0c-0.2-0.1-0.5-0.2-0.7-0.3c-0.1,0-0.2,0-0.2-0.1c0-0.1,0.1-0.1,0.1-0.1
				c0.1-0.1,0.2-0.1,0.2-0.1c0-0.1-0.1,0-0.2,0c-0.1,0-0.1,0-0.1,0c-0.5,0.1-0.8-0.1-1-0.5c-0.1-0.3-0.2-0.6-0.3-1
				c-0.2-1,0-1.9,0.9-2.6c0.1,0,0.1-0.1,0.2,0c0,0,0,0.1,0.1,0.1c0.1,0,0-0.1,0-0.1c-0.1-0.4,0.1-0.6,0.4-0.7c0.1,0,0.1-0.1,0.2-0.1
				c0.6-0.6,1.3-1.1,2.2-1.3c0.2,0,0.4-0.1,0.5-0.2c0.1-0.1,0.2-0.1,0.4,0c0.1,0.1,0.2,0.1,0.3,0.2c0.1,0.1,0.1,0.1,0,0.2
				c-0.2,0.1-0.4,0.2-0.7,0.1c-0.1,0-0.2,0-0.3,0c-0.6,0.3-1.2,0.6-1.6,1.1c-0.1,0.1-0.1,0.2-0.3,0.1C29.8,10.6,29.7,10.6,29.5,10.6
				C29.5,10.6,29.5,10.6,29.5,10.6z"/>
			<path class="st1" d="M32.2,17.4c0.1,0,0.2,0,0.2,0c0.8,0,1.5-0.1,2.3-0.3c0.5-0.1,1-0.3,1.5-0.6c0,0,0.1,0,0.1-0.1
				c0,0-0.1,0-0.1,0c-1.2,0.4-2.4,0.6-3.6,0.6c-0.3,0-0.6,0-0.8-0.1c-0.1,0-0.2-0.1-0.1,0.1c0,0,0,0.1,0,0.1
				c-0.2,0.2,0.1,0.2,0.1,0.2C31.8,17.4,32,17.5,32.2,17.4C32.2,17.4,32.2,17.4,32.2,17.4C32.2,17.4,32.2,17.4,32.2,17.4
				C32.2,17.4,32.2,17.4,32.2,17.4z"/>
			<path class="st1" d="M28.6,16.2c0.5,0.2,1.1,0.3,1.7,0.5c0,0,0.1,0,0.1,0.1c0.1,0.1,0.2,0.3,0.2,0.4c0,0,0,0.1,0,0.1
				c0,0-0.1,0-0.1,0c-0.2-0.1-0.3-0.1-0.5-0.2C29.5,16.9,29,16.6,28.6,16.2C28.5,16.2,28.5,16.2,28.6,16.2
				C28.5,16.2,28.6,16.2,28.6,16.2z M30.2,17C30.2,17,30.2,17,30.2,17C30.2,17,30.2,17,30.2,17C30.2,17,30.2,17,30.2,17z"/>
		</g>
		<g>
			<g>
				<path class="st1" d="M7.2,4.8c0.7,0,1.3,0.2,1.8,0.6c0.6,0.4,0.8,1,0.8,1.7c0,0.4-0.1,0.7-0.4,1c-0.3,0.3-0.6,0.5-1,0.7L8.4,8.8
					l0.1,0C9.3,9,10,9.4,10.6,10c0.6,0.6,0.9,1.3,0.9,2.1c0,0.9-0.4,1.6-1.1,2.1C9.7,14.7,8.7,15,7.3,15c-2.2,0-3.4,0-3.8,0
					C3.2,15,3,14.9,3,14.7c0-0.1,0-0.2,0.1-0.2c0-0.1,0.2-0.1,0.4-0.1c0.2,0,0.4-0.1,0.5-0.2C4,14,4.1,13.9,4.1,13.7V6
					c0-0.2,0-0.3-0.1-0.4C3.9,5.5,3.8,5.4,3.5,5.4c-0.2,0-0.4,0-0.4-0.1C3,5.3,3,5.2,3,5.1C3,5,3,5,3.1,4.9c0.1-0.1,0.2-0.1,0.3-0.1
					H7.2z M5.2,7.9c0,0.3,0.1,0.6,0.3,0.6c0.2,0.1,0.5,0.1,1,0.1c0.6,0,1.1-0.2,1.5-0.5C8.4,7.9,8.6,7.5,8.6,7
					c0-0.5-0.2-0.9-0.6-1.1C7.6,5.6,7.1,5.4,6.5,5.4c-0.5,0-0.8,0-1,0.1C5.3,5.7,5.2,5.9,5.2,6.1V7.9z M5.3,13.6
					c0,0.3,0,0.5,0.1,0.6c0.1,0.1,0.2,0.2,0.4,0.2c0.2,0,0.5,0,1,0c1,0,1.9-0.2,2.5-0.7c0.6-0.5,0.9-1.1,0.9-1.9
					c0-0.8-0.3-1.4-1-1.8S7.7,9.3,6.7,9.3c-0.4,0-0.8,0.1-1,0.2C5.4,9.6,5.3,9.7,5.3,9.9V13.6z"/>
				<path class="st1" d="M17.1,13.7c0,0.3,0.2,0.6,0.7,0.7c0.1,0,0.2,0.1,0.2,0.1c0.1,0,0.1,0.1,0.1,0.2c0,0.1,0,0.1-0.1,0.2
					c-0.1,0-0.2,0.1-0.2,0.1c-0.1,0-0.2,0-0.4-0.1c-0.2,0-0.3-0.1-0.4-0.1c-0.1,0-0.2,0-0.4,0.1c-0.2,0-0.3,0.1-0.3,0.1
					c-0.1,0-0.1,0-0.2-0.1c-0.1,0-0.1-0.1-0.1-0.1c0-0.1,0-0.1-0.1-0.1c0,0-0.1,0-0.1,0c-0.5,0.3-1.1,0.5-1.7,0.5
					c-0.3,0-0.6-0.1-1-0.2c-0.4-0.1-0.6-0.4-0.9-0.7C12.1,14,12,13.6,12,13.1c0-0.5,0.2-0.9,0.7-1.3c0.5-0.4,1.1-0.6,1.8-0.6
					c0.2,0,0.5,0.1,0.8,0.2c0.3,0.1,0.4,0.3,0.4,0.4c0,0.1,0,0.1-0.1,0.2c-0.1,0-0.1,0.1-0.2,0.1c-0.1,0-0.2,0-0.4-0.1
					c-0.2-0.1-0.4-0.1-0.5-0.1c-0.4,0-0.7,0.1-0.9,0.3c-0.3,0.2-0.4,0.5-0.4,0.9c0,0.4,0.1,0.8,0.4,1c0.3,0.2,0.6,0.4,1,0.4
					c0.3,0,0.7-0.1,0.9-0.3c0.3-0.2,0.4-0.5,0.4-0.9v-1.9c0-0.3-0.1-0.5-0.3-0.7c-0.2-0.2-0.4-0.3-0.8-0.3c-0.4,0-0.8,0.1-1.2,0.4
					c-0.1,0.1-0.2,0.1-0.3,0.1c-0.1,0-0.2,0-0.3-0.1c-0.1-0.1-0.1-0.1-0.1-0.2c0-0.2,0.2-0.4,0.6-0.6c0.4-0.2,0.9-0.2,1.4-0.2
					c0.6,0,1.1,0.2,1.5,0.5c0.4,0.3,0.6,0.7,0.6,1.1V13.7z"/>
				<path class="st1" d="M22.5,14c0.1,0,0.2,0.1,0.2,0.2c0,0.1-0.2,0.3-0.6,0.5c-0.4,0.2-0.7,0.3-1.1,0.3c-0.3,0-0.5-0.1-0.8-0.3
					c-0.3-0.2-0.5-0.4-0.5-0.6c-0.1-0.3-0.1-0.7-0.1-1.4l0-1.4c0-0.4-0.2-0.6-0.5-0.7c-0.2,0-0.3-0.1-0.4-0.1
					c-0.1,0-0.1-0.1-0.1-0.2c0-0.1,0-0.1,0.1-0.2c0-0.1,0.1-0.1,0.2-0.1c0.1,0,0.2,0,0.4,0.1c0.2,0,0.3,0.1,0.4,0.1
					c0.1,0,0.2,0,0.4-0.1c0.2,0,0.3-0.1,0.4-0.1c0,0,0.1,0,0.1,0c0,0,0.1,0.1,0.1,0.1c0,0,0,0.4,0,1c0,0.6,0,1.2,0,1.7
					c0,0.4,0,0.7,0,0.8c0,0.2,0.1,0.3,0.3,0.4c0.1,0.1,0.3,0.2,0.6,0.2c0.2,0,0.4-0.1,0.6-0.2C22.3,14.1,22.4,14,22.5,14z
					 M23.8,10.1c0.2,0,0.2,0.1,0.2,0.3c0,0.5,0,1.1,0,2c0,0.9,0,1.4,0,1.7c0,1-0.1,1.8-0.4,2.2c-0.2,0.4-0.5,0.8-0.8,0.9
					c-0.3,0.2-0.6,0.3-1,0.3c-0.3,0-0.6,0-0.8-0.1c-0.2-0.1-0.3-0.2-0.3-0.3c0,0,0-0.1,0.1-0.1c0,0,0.1-0.1,0.1-0.1
					c0,0,0.1,0,0.2,0.1c0.1,0,0.2,0.1,0.4,0.1c0.3,0,0.5-0.1,0.8-0.3c0.2-0.2,0.4-0.4,0.5-0.7c0.1-0.3,0.1-0.8,0.1-1.4
					c0-2.2,0-3.4,0-3.6c0-0.2-0.2-0.4-0.5-0.4c-0.3-0.1-0.5-0.2-0.5-0.3c0-0.2,0.1-0.3,0.4-0.3c0.1,0,0.2,0,0.4,0c0.2,0,0.4,0,0.5,0
					c0.1,0,0.2,0,0.3,0C23.6,10.2,23.7,10.1,23.8,10.1z"/>
			</g>
		</g>
		<g>
			<g>
				<path class="st1" d="M41.6,13.9c0,0.1,0,0.2,0.1,0.3c0.1,0.1,0.2,0.2,0.5,0.2c0.2,0,0.4,0.1,0.4,0.1c0.1,0.1,0.1,0.1,0.1,0.2
					c0,0.2-0.1,0.2-0.4,0.2c-0.1,0-0.3,0-0.6,0c-0.3,0-0.5,0-0.6,0c-0.1,0-0.3,0-0.6,0c-0.3,0-0.4,0-0.6,0c-0.3,0-0.5-0.1-0.5-0.3
					c0-0.1,0-0.1,0.1-0.2c0,0,0.2-0.1,0.4-0.1c0.2,0,0.4-0.1,0.5-0.3c0.1-0.1,0.1-0.3,0.1-0.5V6.2c0-0.1,0-0.2-0.1-0.3
					c-0.1-0.1-0.2-0.2-0.5-0.3c-0.2-0.1-0.4-0.1-0.4-0.2c0,0-0.1-0.1-0.1-0.1c0-0.2,0.1-0.2,0.4-0.2c0.1,0,0.2,0,0.4,0
					c0.2,0,0.3,0,0.4,0c0.1,0,0.2,0,0.4-0.1C41.1,5,41.2,5,41.3,5c0.1,0,0.2,0,0.2,0.1c0.1,0.1,0.1,0.2,0.1,0.5V13.9z M45.1,13.8
					c0,0.2,0,0.3,0.1,0.4c0.1,0.1,0.2,0.2,0.5,0.2c0.2,0,0.4,0.1,0.4,0.1c0,0.1,0.1,0.1,0.1,0.2c0,0.1,0,0.2-0.1,0.2
					c-0.1,0-0.2,0-0.4,0c-0.1,0-0.3,0-0.6,0c-0.2,0-0.4,0-0.5,0c-0.1,0-0.3,0-0.6,0c-0.3,0-0.5,0-0.6,0c-0.3,0-0.4-0.1-0.4-0.3
					c0-0.1,0-0.1,0.1-0.2c0,0,0.2-0.1,0.4-0.1c0.2,0,0.4-0.1,0.5-0.2C44,14.1,44,14,44,13.8c0-0.2,0-0.6,0-1.1c0-0.5,0-0.8,0-1.1
					c0-0.2-0.1-0.4-0.2-0.5c-0.1-0.1-0.3-0.2-0.5-0.2c-0.2,0-0.5,0.1-0.8,0.3c-0.2,0.1-0.3,0.2-0.4,0.2c0,0-0.1,0-0.1-0.1
					c-0.1-0.1-0.1-0.1-0.1-0.2c0-0.2,0.2-0.5,0.7-0.8c0.5-0.3,0.9-0.4,1.2-0.4c0.3,0,0.6,0.1,0.8,0.3c0.3,0.2,0.4,0.4,0.5,0.6
					c0,0.1,0.1,0.5,0.1,1.2c0,0.3,0,0.6,0,1C45.1,13.5,45.1,13.8,45.1,13.8z"/>
				<path class="st1" d="M51.6,13.7c0,0.3,0.2,0.6,0.7,0.7c0.1,0,0.2,0.1,0.2,0.1c0.1,0,0.1,0.1,0.1,0.2c0,0.1,0,0.1-0.1,0.2
					c-0.1,0-0.2,0.1-0.2,0.1c-0.1,0-0.2,0-0.4-0.1c-0.2,0-0.3-0.1-0.4-0.1c-0.1,0-0.2,0-0.4,0.1C51,15,50.9,15,50.8,15
					c-0.1,0-0.1,0-0.2-0.1c-0.1,0-0.1-0.1-0.1-0.1c0-0.1,0-0.1-0.1-0.1c0,0-0.1,0-0.1,0c-0.5,0.3-1.1,0.5-1.7,0.5
					c-0.3,0-0.6-0.1-1-0.2c-0.4-0.1-0.6-0.4-0.9-0.7c-0.2-0.3-0.3-0.7-0.3-1.1c0-0.5,0.2-0.9,0.7-1.3c0.5-0.4,1.1-0.6,1.8-0.6
					c0.2,0,0.5,0.1,0.8,0.2c0.3,0.1,0.4,0.3,0.4,0.4c0,0.1,0,0.1-0.1,0.2c-0.1,0-0.1,0.1-0.2,0.1c-0.1,0-0.2,0-0.4-0.1
					c-0.2-0.1-0.4-0.1-0.5-0.1c-0.4,0-0.7,0.1-0.9,0.3c-0.3,0.2-0.4,0.5-0.4,0.9c0,0.4,0.1,0.8,0.4,1c0.3,0.2,0.6,0.4,1,0.4
					c0.3,0,0.7-0.1,0.9-0.3c0.3-0.2,0.4-0.5,0.4-0.9v-1.9c0-0.3-0.1-0.5-0.3-0.7c-0.2-0.2-0.4-0.3-0.8-0.3c-0.4,0-0.8,0.1-1.2,0.4
					c-0.1,0.1-0.2,0.1-0.3,0.1c-0.1,0-0.2,0-0.3-0.1c-0.1-0.1-0.1-0.1-0.1-0.2c0-0.2,0.2-0.4,0.6-0.6c0.4-0.2,0.9-0.2,1.4-0.2
					c0.6,0,1.1,0.2,1.5,0.5c0.4,0.3,0.6,0.7,0.6,1.1V13.7z"/>
				<path class="st1" d="M54.4,11c0,0.1,0,0.2,0.1,0.3c0.1,0.1,0.4,0.3,1,0.6c0.5,0.3,0.9,0.6,1.1,0.8c0.2,0.3,0.3,0.6,0.3,0.9
					c0,0.5-0.2,0.8-0.6,1.1c-0.4,0.3-0.9,0.4-1.5,0.4c-0.3,0-0.7-0.1-1-0.2c-0.3-0.2-0.5-0.3-0.5-0.5c0-0.1,0-0.3,0-0.5
					c0-0.2,0-0.3,0-0.4c0-0.2,0.1-0.3,0.3-0.3c0.1,0,0.1,0,0.2,0.1c0.1,0.1,0.1,0.2,0.2,0.5c0.1,0.3,0.2,0.5,0.4,0.6
					c0.2,0.1,0.3,0.2,0.5,0.2c0.2,0,0.5-0.1,0.6-0.2c0.2-0.2,0.3-0.4,0.3-0.6c0-0.2-0.1-0.3-0.2-0.5c-0.1-0.1-0.4-0.3-1-0.6
					c-0.5-0.2-0.9-0.5-1-0.7c-0.2-0.2-0.2-0.5-0.2-0.8c0-0.4,0.2-0.7,0.5-0.9c0.3-0.2,0.7-0.4,1.2-0.4c0.4,0,0.7,0.1,1.1,0.2
					c0.4,0.1,0.5,0.3,0.5,0.4c0,0.1,0,0.2,0,0.3c0,0.1,0,0.2,0,0.3c0,0.1,0,0.2-0.1,0.3c0,0.1-0.1,0.1-0.2,0.1c-0.1,0-0.2,0-0.2-0.1
					c0-0.1-0.1-0.1-0.1-0.3c0-0.1-0.1-0.2-0.2-0.3c-0.1-0.1-0.2-0.2-0.3-0.2c-0.1-0.1-0.3-0.1-0.5-0.1s-0.3,0.1-0.5,0.2
					C54.4,10.7,54.4,10.8,54.4,11z"/>
				<path class="st1" d="M61.8,12.2c0.1,0,0.2,0,0.2-0.1c0,0,0.1-0.1,0.1-0.2c0-0.4-0.1-0.7-0.4-1c-0.3-0.3-0.7-0.5-1.3-0.5
					c-0.4,0-0.8,0.2-1.2,0.6c-0.4,0.4-0.6,0.9-0.6,1.6c0,0.5,0.2,0.9,0.7,1.3c0.4,0.4,0.9,0.6,1.5,0.6c0.4,0,0.9-0.1,1.3-0.4
					c0.2-0.1,0.3-0.1,0.4-0.1c0.1,0,0.1,0,0.2,0.1c0,0,0.1,0.1,0.1,0.2c0,0.2-0.3,0.4-0.8,0.6c-0.5,0.2-1,0.4-1.6,0.4
					c-0.8,0-1.5-0.3-2-0.8c-0.5-0.5-0.8-1.2-0.8-2c0-0.7,0.3-1.3,0.9-1.8c0.6-0.5,1.3-0.7,2-0.7c1,0,1.7,0.2,2.2,0.7
					c0.5,0.5,0.7,1.1,0.7,1.8c0,0.1,0,0.2-0.1,0.3c-0.1,0-0.2,0.1-0.4,0.1h-3.2c-0.3,0-0.4-0.1-0.4-0.3c0-0.2,0.1-0.3,0.4-0.3H61.8z
					"/>
				<path class="st1" d="M65.8,11.5l0,0.2c0,0,0.1-0.2,0.3-0.7c0.2-0.4,0.4-0.8,0.6-0.9s0.4-0.3,0.6-0.3c0.2,0,0.3,0,0.4,0.1
					c0.1,0.1,0.1,0.1,0.1,0.2c0,0.1,0,0.2-0.1,0.3c-0.1,0.1-0.2,0.2-0.3,0.3c-0.6,0.4-1,1-1.3,1.6c-0.3,0.6-0.4,1.2-0.4,1.6
					c0,0.2,0,0.3,0.1,0.4c0.1,0.1,0.2,0.1,0.4,0.2c0.2,0,0.3,0.1,0.4,0.2c0.1,0.1,0.1,0.1,0.1,0.2c0,0.1-0.1,0.2-0.2,0.2
					c-0.1,0-0.3,0-0.5-0.1c-0.2,0-0.5-0.1-0.7-0.1c-0.2,0-0.4,0-0.5,0.1c-0.2,0-0.3,0.1-0.3,0.1c-0.1,0-0.2,0-0.3-0.1
					c-0.1,0-0.1-0.1-0.1-0.2c0-0.1,0-0.1,0.1-0.2c0,0,0.2-0.1,0.4-0.2c0.2-0.1,0.3-0.1,0.4-0.2c0-0.1,0.1-0.3,0.1-0.7v-2.1
					c0-0.1,0-0.3-0.1-0.4c-0.1-0.1-0.2-0.2-0.4-0.2c-0.2-0.1-0.3-0.1-0.3-0.2c0,0-0.1-0.1-0.1-0.1c0-0.2,0.1-0.2,0.3-0.2
					c0.1,0,0.2,0,0.3,0c0.1,0,0.2,0,0.3,0c0,0,0.1,0,0.2,0c0.1,0,0.2,0,0.4,0c0.3,0,0.4,0.3,0.4,0.8V11.5z"/>
			</g>
		</g>
		<g>
			<path class="st1" d="M39.3,3.8C39.3,3.8,39.4,3.8,39.3,3.8c-0.2-0.3-0.4-0.4-0.6-0.6c-1.7-1.6-4-2.5-6.4-2.5
				c-2.4,0-4.6,0.9-6.4,2.5c-3.6,3.4-8.5,5.3-13.7,5.3h-1.3c-0.1,0-0.2,0.1-0.2,0.1c0,0-0.1,0.1,0,0.2c0.2,0.2,0.4,0.3,0.7,0.3h0.7
				c5.3,0,10.4-1.9,14.1-5.5c1.6-1.5,3.7-2.3,5.9-2.3c2.2,0,4.3,0.8,5.9,2.3c0.1,0.1,0.3,0.2,0.4,0.1L39.3,3.8
				C39.3,3.9,39.3,3.9,39.3,3.8z"/>
			<path class="st1" d="M71.1,12.2c-0.2-2.1-1.9-3.7-4.1-3.7H52.4c-3.2,0-6.4-0.7-9.2-2.2c-0.1,0-0.2-0.1-0.3,0
				c-0.1,0.1-0.2,0.2-0.2,0.3v0c0,0.1,0.1,0.2,0.2,0.3c2.9,1.5,6.2,2.2,9.5,2.2h14.6c1.7,0,3.2,1.3,3.4,3c0.1,0.9-0.2,1.8-0.9,2.5
				c-0.6,0.7-1.5,1.1-2.4,1.1H38.8L38.7,16c-1.6,1.8-3.9,2.8-6.3,2.8c-2.4,0-4.7-1-6.3-2.8L26,15.8h-1c-0.1,0-0.3,0.1-0.3,0.2
				l-0.1,0.4c0,0,0,0.1,0,0.1c0,0,0,0,0.1,0h0.1c0.6,0,1.2,0.2,1.7,0.6c1.7,1.5,3.9,2.3,6.1,2.3c2.2,0,4.4-0.8,6.1-2.3l0,0
				c0.4-0.4,1-0.6,1.6-0.6h27c1.1,0,2.2-0.5,2.9-1.3C70.8,14.4,71.2,13.4,71.1,12.2z"/>
			<path class="st1" d="M0.2,12.7c0.1,2.1,2,3.8,4.1,3.8h17c0.3,0,0.6-0.2,0.6-0.5l0-0.2H4.3c-1.8,0-3.2-1.3-3.4-3
				c-0.1-1.4,0.7-2.7,2-3.3C3,9.4,3.2,9.3,3.2,9.1v0c0-0.1,0-0.2-0.1-0.3c0,0-0.1,0-0.1,0c0,0-0.1,0-0.1,0C1.1,9.4,0.1,11,0.2,12.7z
				"/>
		</g>
	</g>
	<g>
		<path class="st1" d="M71,8.7c-0.4,0-0.8-0.3-0.8-0.8c0-0.4,0.3-0.8,0.8-0.8c0.4,0,0.8,0.3,0.8,0.8C71.8,8.4,71.5,8.7,71,8.7z
			 M71,7.3c-0.4,0-0.7,0.3-0.7,0.7c0,0.4,0.3,0.7,0.7,0.7c0.4,0,0.7-0.3,0.7-0.7C71.7,7.6,71.4,7.3,71,7.3z"/>
		<g>
			<path class="st1" d="M70.9,7.6C70.9,7.6,70.9,7.6,70.9,7.6C70.9,7.7,70.9,7.7,70.9,7.6c0,0.1,0,0.1,0,0.1c0,0,0,0,0,0
				C70.9,7.7,70.9,7.7,70.9,7.6C70.9,7.7,70.8,7.7,70.9,7.6C70.8,7.7,70.8,7.7,70.9,7.6c-0.1,0-0.1,0-0.1,0.1c0,0,0,0,0,0v0.5
				c0,0,0,0,0,0c0,0,0,0,0,0c0,0,0,0,0,0c0,0,0,0,0,0c0,0,0,0,0,0c0,0,0,0,0,0c0,0,0,0,0,0c0,0,0,0,0,0c0,0,0,0,0,0c0,0,0,0,0,0
				s0,0,0,0c0,0,0,0,0,0c0,0,0,0,0,0c0,0,0,0,0,0c0,0,0,0,0,0V7.7c0,0,0,0-0.1,0c0,0,0,0-0.1,0c0,0,0,0,0,0c0,0,0,0,0,0c0,0,0,0,0,0
				c0,0,0,0,0,0c0,0,0,0,0,0c0,0,0-0.1,0-0.1c0,0,0,0,0,0H70.9z"/>
			<path class="st1" d="M71.5,8.2C71.5,8.2,71.5,8.2,71.5,8.2C71.5,8.2,71.5,8.2,71.5,8.2C71.6,8.2,71.6,8.2,71.5,8.2
				C71.6,8.2,71.6,8.2,71.5,8.2C71.6,8.3,71.6,8.3,71.5,8.2C71.6,8.3,71.6,8.3,71.5,8.2C71.6,8.3,71.5,8.3,71.5,8.2
				C71.5,8.3,71.5,8.3,71.5,8.2C71.5,8.3,71.5,8.3,71.5,8.2c-0.1,0.1-0.1,0.1-0.1,0.1c0,0,0,0,0,0c0,0,0,0,0,0c0,0,0,0,0,0
				C71.4,8.2,71.4,8.2,71.5,8.2C71.4,8.2,71.4,8.2,71.5,8.2l-0.1-0.4c0,0,0,0,0,0c0,0,0,0,0,0l-0.1,0.1c0,0.1-0.1,0.1-0.1,0.1
				c0,0,0,0.1,0,0.1c0,0,0,0,0,0c0,0,0,0,0,0c0,0,0,0,0,0L71,7.8c0,0,0,0,0,0c0,0,0,0,0,0v0.4c0,0,0,0,0,0c0,0,0,0,0,0c0,0,0,0,0,0
				c0,0,0,0,0,0c0,0,0,0,0,0c0,0,0,0,0,0c0,0,0,0,0,0c0,0,0,0,0,0c0,0,0,0,0,0c0,0,0,0,0,0c0,0,0,0,0,0c0,0,0,0,0,0c0,0,0,0,0,0V7.7
				c0,0,0,0,0,0c0,0,0,0,0,0c0,0,0,0,0,0c0,0,0,0,0,0c0,0,0,0,0,0c0,0,0,0,0,0c0,0,0,0,0,0c0,0,0,0,0,0c0,0,0,0,0,0c0,0,0,0,0,0
				c0,0,0,0,0,0c0,0,0,0,0,0l0.1,0.2L71.2,8c0,0,0,0,0,0c0,0,0,0,0,0c0.1-0.2,0.2-0.3,0.2-0.4c0,0,0,0,0,0s0,0,0,0c0,0,0,0,0,0
				c0,0,0,0,0,0c0,0,0,0,0,0c0,0,0,0,0,0c0,0,0,0,0,0c0,0,0,0,0,0c0,0,0,0,0,0c0,0,0,0,0,0c0,0,0,0,0,0V8.2z"/>
		</g>
	</g>
</g>
</svg>
