<?xml version="1.0" encoding="utf-8"?>
<!-- Generator: Adobe Illustrator 27.2.0, SVG Export Plug-In . SVG Version: 6.00 Build 0)  -->
<svg version="1.1" id="Layer_1" xmlns="http://www.w3.org/2000/svg" xmlns:xlink="http://www.w3.org/1999/xlink" x="0px" y="0px"
	 viewBox="0 0 50 51" style="enable-background:new 0 0 50 51;" xml:space="preserve">
<style type="text/css">
	.st0{fill:#1E4772;}
</style>
<g>
	<g>
		<g>
			<path class="st0" d="M20.7,46.3c-0.7-0.8-1.3-1.6-1.9-2.5c-1.4-1.9-2.1-4-2.2-6.4c-0.1-1.3-0.1-2.7,0.2-4c0.6-2.1,1.5-4,2.8-5.7
				c1.1-1.3,2.3-2.3,3.7-3.1c1.5-0.8,3.2-1.3,4.9-1.5c4.5-0.4,8.4,0.9,11.3,4.5c0.7,0.8,1.2,1.7,1.7,2.7c0.6,1.2,0.8,2.3-0.2,3.4
				c0,0.1,0,0.2,0,0.3c0.2,0.3,0.4,0.6,0.6,0.9c0.6,1.1,0.6,2.1-0.1,2.8c-0.7,0.8-1.7,1.2-2.8,0.8c-0.5-0.2-0.9-0.5-1.4-0.7
				c0,0-0.1,0.1-0.3,0.2c-0.7,0.6-1.9,0.8-2.5,0.3c-0.9-0.6-1.3-1.7-0.9-2.6c0.2-0.4,0.1-0.7-0.2-1C31.7,32.5,29,31.5,26,32
				c-2.7,0.4-4.7,2-6.1,4.3c-1.3,2.2-1.5,4.6-0.6,7c0.4,1,0.9,2.2,1.6,3C20.9,46.3,20.8,46.2,20.7,46.3z M26.3,28
				c0.8-0.2,1.6-0.3,2.5-0.4c0.3,0,0.5-0.1,0.7-0.3c0.1-0.1,0.3-0.2,0.5-0.3c0,0.1-0.1,0.1-0.1,0.2c-0.4,0.6-0.4,1.3,0,1.8
				c0.4,0.4,1.3,0.5,1.8,0.2c0.3-0.2,0.6-0.5,1-0.7c0,0,0.1,0,0.1,0c-0.2,0.4-0.3,0.8-0.5,1.1c-0.2,0.2-0.1,0.4,0,0.6
				c0.3,0.5,0.7,0.8,1.3,0.9c0.7,0.1,1.4,0.1,2.1-0.4c0.1-0.1,0.2-0.2,0.3-0.3c0.2-0.2,0.2-0.3,0-0.5c-0.6-0.7-0.7-1.7-0.2-2.5
				c0,0.9,0.2,1.7,1,2.3c0.7,0.6,1.6,0.6,2.5,0.3c-0.4,0.5-0.9,0.7-1.4,0.7c-0.3,0-0.4,0.1-0.4,0.4c0,0.3-0.1,0.6-0.1,0.9
				c0.1,1.8,1.7,2.2,2.7,1.8c0.5-0.2,0.8-0.6,0.9-1.1c0.2-0.6,0.1-1.2-0.1-1.8c-0.4-1.2-1-2.2-1.8-3.1c-1.1-1.3-2.4-2.3-3.9-2.8
				c-1.4-0.5-2.9-0.8-4.4-0.7c-2.2,0.1-4.3,0.7-6.1,1.9c3.1-0.7,6.3-1.1,9.5-0.2c-3.9-0.3-7.3,0.9-10.5,3.1
				C24.5,28.7,25.4,28.3,26.3,28z M34.9,34.8c0,0,0.1,0,0.1-0.1c0.8-0.7,0.8-0.7,0-1.4c-0.2-0.2-0.4-0.4-0.6-0.6
				c0.3,0.1,0.5,0.3,0.8,0.4c0.3,0.1,0.5,0.3,0.7,0.5c0.7-0.6,0.5-1.3,0.4-2c-0.2,0.1-0.3,0.2-0.5,0.2c-1.4,0.7-3.2,0.4-4.2-0.7
				c-0.4-0.5-0.8-0.6-1.3-0.6c-2.3-0.1-4.6,0.2-6.7,1.2c-0.3,0.1-0.5,0.3-0.7,0.4C27.5,30.3,31.6,30.9,34.9,34.8z M37.9,36.7
				c0.4,0.8,1,1.2,1.8,1.3c0.7,0,1.3-0.2,1.6-0.9c0.4-0.8,0.1-1.9-0.4-2.5c-0.1-0.1-0.2-0.1-0.3-0.1c-1.8,0.4-2.5,0.2-3.8-1
				c-0.4,0.2-0.5,0.5-0.5,0.9c0,0.7,0.4,1.3,1,1.6c0.4,0.2,0.7,0.2,1.1,0.2c0.4-0.1,0.8-0.2,1.2-0.4C39.2,36.5,38.6,36.6,37.9,36.7z
				 M36.8,36.4c-0.4-0.3-0.7-0.7-1-1.1c-0.1-0.2-0.2-0.2-0.4-0.1c-0.9,0.3-1.2,1-0.9,1.8c0.4,0.9,1.2,1.3,2.1,0.9
				c0.1,0,0.2-0.1,0.3-0.2C37.5,37.4,37.4,36.8,36.8,36.4z M29,28.8c-0.1-0.1-0.3-0.1-0.4-0.1c-1,0.3-2,0.7-3,1.1
				c-0.7,0.3-1.3,0.7-2,1.1c1-0.3,1.9-0.6,2.9-0.9c1-0.2,2-0.3,3-0.5C29.3,29.2,29.2,29,29,28.8z M18.3,35c-0.8,0.9-1,3.8-0.4,5.7
				C17.7,38.8,17.8,36.9,18.3,35z M19.8,31c0.6-0.6,1.2-1.3,1.8-1.9c0.7-0.6,1.4-1.1,2.1-1.6C22,28.1,20.7,29.4,19.8,31z M21.8,31.1
				c-0.5,0.2-1.3,1.1-1.5,1.8C20.8,32.3,21.2,31.7,21.8,31.1z"/>
			<path class="st0" d="M32.8,45.4c-0.2,0-0.3,0.1-0.5,0.1c-0.4,0.1-0.8,0.3-1.2,0.4c-0.1,0-0.3,0-0.4,0c-0.5-0.5-1-1.1-1.6-1.6
				c0.1-0.1,0.1-0.1,0.2-0.1c2-0.4,4.1-0.6,6.2-0.1c0.9,0.2,1.7,0.6,2.3,1.3c0.2,0.2,0.2,0.4,0,0.6c-0.3,0.3-0.6,0.6-0.9,0.9
				c-1.1,0.8-2.4,1.2-3.8,1.3c-1.2,0.1-2.4,0-3.6-0.1c-0.9-0.1-1.8-0.2-2.6-0.6c-0.3-0.2-0.5-0.6-0.4-1c0.1,0,0.3,0,0.5,0
				c0.6,0,1.3,0.2,1.9,0.1c0.6-0.1,0.9,0.2,1.3,0.5c0.1,0.1,0.2,0.2,0.3,0.4c0.2,0.3,0.4,0.3,0.6,0.1c0.3-0.2,0.7-0.4,1-0.7
				c0,0,0-0.1-0.1-0.1c-0.3,0.2-0.6,0.4-0.9,0.6c-0.1,0.1-0.4,0.1-0.5,0c-0.3-0.5-0.9-0.7-1.4-1c-0.7-0.4-1.4-0.7-1.9-1.3
				c-0.4-0.5-0.5-0.5-1.1-0.2c0.2,0,0.3,0,0.5,0c0.1,0,0.3,0,0.3,0.1c0.4,0.4,0.7,0.8,0.9,1c-0.3-0.1-0.9-0.1-1.5-0.2
				c0-0.1,0-0.3,0-0.4c0,0,0,0-0.1,0c-0.1,0.3-0.2,0.7-0.2,1.1c-0.8-1.7-1.4-3.4-1.2-4.7c0.4,0,0.8,0,1.3,0c0.3,0,0.6,0.4,0.6,0.8
				c0,0.3-0.2,0.5-0.4,0.5c-0.4,0-0.5,0.3-0.8,0.3c0.2,0,0.5,0,0.7-0.1c0.9-0.3,1.6,0,2.2,0.7c0.7,0.7,1.4,1.3,2.1,2
				c0.1,0.1,0.3,0.2,0.4,0.2C31.7,46,32.2,45.8,32.8,45.4C32.8,45.5,32.8,45.5,32.8,45.4z M34.6,46.4c0.1,0,0.2,0.1,0.3,0.1
				c0.1,0,0.3-0.2,0.4-0.2c0.8-0.1,1.5-0.3,2.3-0.4c0,0,0-0.1,0-0.1c-0.1,0-0.2,0-0.3,0c-1.2,0-2.3,0-3.5,0c-0.6,0-0.8,0.3-1.1,0.8
				C33.5,46.5,34.1,46.4,34.6,46.4z"/>
			<path class="st0" d="M23.1,42.9c0.2,0.4,0.4,0.7,0.6,1.1c0.1,0.2,0.2,0.4,0.3,0.6c0.2,0.4,0.3,0.8,0.5,1.2
				c0.2,0.3,0.4,0.6,0.6,0.9c0.5,0.9,0.9,1.7,1.4,2.6c0-0.1,0-0.2-0.1-0.5c0.2,0.3,0.4,0.5,0.6,0.7c0,0,0,0,0.1,0
				c-0.1-0.1-0.1-0.3-0.2-0.4c0,0,0,0,0,0c0.1,0.1,0.2,0.3,0.3,0.4c0,0,0,0,0.1,0c-0.1-0.1-0.1-0.3-0.3-0.5c0.1,0.1,0.2,0.2,0.3,0.3
				c0,0,0,0,0.1,0c-0.2-0.3-0.4-0.6-0.5-0.9c0.2,0,0.4,0,0.5,0c0,0,0,0,0-0.1c-0.2-0.1-0.4-0.2-0.5-0.2c-0.4-0.1-0.6-0.4-0.8-0.8
				c-0.5-1.2-1.1-2.3-1.3-3.7c-0.1-0.6-0.1-1.1-0.2-1.7c0-0.6-0.2-1-0.7-1.4c0.2,0,0.4,0.1,0.7,0.1c0.2,0,0.4-0.1,0.4-0.4
				c0-0.5,0-1.1-0.1-1.6c-0.1-0.5-0.3-0.9-0.7-1.2c0.2,0,0.3,0.1,0.5,0.2c0.3,0.2,0.4,0.1,0.6-0.1c0.8-0.9,1.8-1.5,2.9-2
				c0.1-0.1,0.3-0.1,0.4,0c0.5,0.1,1-0.1,1.5-0.4c-0.3-0.2-0.6-0.4-0.9-0.6c-0.1,0-0.2,0-0.3,0c-0.6,0.2-1.1,0.5-1.6,0.6
				c-1.3,0.4-2.3,1.3-3.3,2.2c-0.1,0.1-0.2,0.2-0.3,0.2c-0.7,0.3-0.9,0.7-0.8,1.3c0,0.1,0,0.1,0,0.3c-0.1-0.2-0.2-0.2-0.3-0.4
				c-1,0.7-1.7,1.6-1.8,2.9c-0.2,1.3,0.1,2.6,0.7,3.8c0.3,0.6,0.8,0.8,1.5,0.8c0.3,0,0.5-0.1,0.8-0.1c-0.2,0.1-0.4,0.3-0.7,0.5
				c0.6,0.2,1.2,0.5,1.8,0.7c0,0,0.1-0.1,0.1-0.1C23.9,45.8,23.5,44.3,23.1,42.9z"/>
			<path class="st0" d="M36.1,47.9c-2.7,1-5.5,1.4-8.4,0.8c0,0.2,0,0.4-0.1,0.7C30.6,49.7,33.5,49.3,36.1,47.9z"/>
			<path class="st0" d="M26.2,49.1c-0.2-0.3-0.3-0.7-0.5-0.9c-0.1-0.1-0.2-0.1-0.3-0.2c-1-0.3-2-0.5-3-0.7
				C22.9,47.9,25,48.9,26.2,49.1z"/>
			<path class="st0" d="M32.9,46.5c0.6-0.1,1.2-0.1,1.8-0.2c0.1,0,0.2,0.1,0.3,0.1c0.1,0,0.3-0.2,0.4-0.2c0.8-0.1,1.5-0.3,2.3-0.4
				c0,0,0-0.1,0-0.1c-0.1,0-0.2,0-0.3,0c-1.2,0-2.3,0-3.5,0C33.3,45.7,33.1,46,32.9,46.5z"/>
		</g>
		<path class="st0" d="M15.8,36.5c0-2.5,0.7-4.8,1.9-6.8c0.5-0.9,0.9-1.9,0.9-3V5.6c0-0.9-0.2-1.6-0.5-2c-0.3-0.4-0.8-0.5-1.5-0.5
			c-0.4,0-0.9,0.1-1.6,0.2c-0.7,0.1-1.3,0.2-1.6,0.2c-0.3,0-0.8-0.1-1.5-0.2c-0.7-0.1-1.2-0.2-1.5-0.2c-0.4,0-0.8,0.1-1.1,0.3
			C8.8,3.6,8.6,3.8,8.6,4.2c0,0.3,0.1,0.6,0.3,0.9c0.2,0.3,0.8,0.5,1.9,0.8c1.1,0.3,1.8,0.7,2.1,1.2c0.3,0.6,0.5,1.2,0.5,2v34.5
			c0,0.7-0.2,1.4-0.5,1.9c-0.3,0.5-1,0.9-2.1,1.1c-1.1,0.2-1.7,0.4-1.9,0.6c-0.2,0.2-0.3,0.5-0.3,0.9c0,0.3,0.1,0.6,0.4,0.8
			c0.2,0.2,0.8,0.3,1.7,0.3c0.2,0,0.5,0,0.9,0c0,0,0,0,0,0l13.2,0.1c0.1,0,0.1-0.1,0-0.1C19.5,47.2,15.8,42.3,15.8,36.5z"/>
	</g>
</g>
</svg>
