<?xml version="1.0" encoding="utf-8"?>
<!-- Generator: Adobe Illustrator 27.2.0, SVG Export Plug-In . SVG Version: 6.00 Build 0)  -->
<svg version="1.1" id="Layer_1" xmlns="http://www.w3.org/2000/svg" xmlns:xlink="http://www.w3.org/1999/xlink" x="0px" y="0px"
	 viewBox="0 0 1512 773" style="enable-background:new 0 0 1512 773;" xml:space="preserve">
<style type="text/css">
	.st0{fill:#D9D9D9;filter:url(#Adobe_OpacityMaskFilter);}
	.st1{mask:url(#mask0_114_888_00000099664450649192212820000006788182374096561594_);}
	
		.st2{fill:none;filter:url(#Adobe_OpacityMaskFilter_00000142142553458771139820000012993621146809300618_);stroke:#84C79E;stroke-width:2;stroke-miterlimit:10;}
	.st3{fill:none;stroke:#84C79E;stroke-width:2;stroke-miterlimit:10;}
	.st4{mask:url(#mask1_114_888_00000116943600061529306370000008082654033500521648_);}
	.st5{fill:url(#SVGID_1_);fill-opacity:0.48;}
	.st6{fill:#FFFFFF;}
	.st7{fill:#DCDDDC;}
	.st8{fill:#B6B7B5;}
	.st9{fill:#848682;}
	.st10{fill:none;stroke:#317EAD;stroke-width:4;stroke-linecap:round;}
	.st11{fill-rule:evenodd;clip-rule:evenodd;fill:#EDEEF9;}
	.st12{fill:none;}
	.st13{fill-opacity:8.000000e-02;}
	.st14{fill-opacity:0.2;}
	.st15{stroke:#FFFFFF;stroke-width:2;}
	.st16{fill:#133E5B;}
</style>
<defs>
	<filter id="Adobe_OpacityMaskFilter" filterUnits="userSpaceOnUse" x="-414.1" y="-2098.8" width="3128.3" height="3167.8">
		<feColorMatrix  type="matrix" values="1 0 0 0 0  0 1 0 0 0  0 0 1 0 0  0 0 0 1 0"/>
	</filter>
</defs>
<mask maskUnits="userSpaceOnUse" x="-414.1" y="-2098.8" width="3128.3" height="3167.8" id="mask0_114_888_00000099664450649192212820000006788182374096561594_">
	<path class="st0" d="M0,0h1512v773H0V0z"/>
</mask>
<g class="st1">
	<defs>
		
			<filter id="Adobe_OpacityMaskFilter_00000071535396570229520120000010889539185440259465_" filterUnits="userSpaceOnUse" x="-414.1" y="-2098.8" width="3128.3" height="3128.3">
			<feColorMatrix  type="matrix" values="1 0 0 0 0  0 1 0 0 0  0 0 1 0 0  0 0 0 1 0"/>
		</filter>
	</defs>
	
		<mask maskUnits="userSpaceOnUse" x="-414.1" y="-2098.8" width="3128.3" height="3128.3" id="mask1_114_888_00000116943600061529306370000008082654033500521648_">
		
			<path style="fill:none;filter:url(#Adobe_OpacityMaskFilter_00000071535396570229520120000010889539185440259465_);stroke:#84C79E;stroke-width:2;stroke-miterlimit:10;" d="
			M287.1-547.6c-48.8-20.6-67.3-71-35.4-99.8c65.6-59.2,335.7-30,348.4,10.2C612.6-597.7,388.9-504.7,287.1-547.6z"/>
		<path class="st3" d="M408-415.9c111.4,39.3,298.5-240.5,221.3-306.6c-47.5-40.6-162.4-35.5-256.2-22.2
			c-88,12.5-213.7,63.8-244.8,148.9c-16.4,45.2-6.6,109.5,28.2,132.1c26.9,17.4,63.3,9.6,71.3,12.5c38.2-16,43.8-22.2,74.3-25.9
			C342-482,377.4-426.7,408-415.9z"/>
		<path class="st3" d="M521.1-278.2c129.4-20.8,270-429.6,129.7-523.6c-89.4-59.9-245.3-33.5-353.9-1.8
			C197-774.6,30.9-677.5-2.8-538.3c-19.5,80.8,4.2,194.6,72.2,227.5c54.2,26.2,124.1,3.7,136.4,1.9c72.7-39.4,78.6-59.4,132.8-72.9
			C410.4-399.7,467-269.5,521.1-278.2z"/>
		<path class="st3" d="M625.9-141.5c142.9-38.4,241.6-618.2,38-740.6c-131.4-79-328.2-31.6-451.7,18.6
			c-111.7,45.4-317.6,188.4-354.4,381.8c-22.2,116.6,14.9,279.5,116.3,322.9c81.5,34.9,185.5-0.9,201.6-8.6
			c111.9-53.9,113.4-96.7,191.3-120C470.5-318.4,551.1-121.5,625.9-141.5z"/>
		<path class="st3" d="M724.5-11c158.2-55.3,212.8-806.3-53.6-957.6c-173.5-97.6-411.2-29.9-549.4,39
			C-2.2-868-247.6-679.1-287.8-431.4c-24.7,152.3,25.5,364.3,160.3,418.3c108.8,43.5,246.2-7.5,266.7-19.2
			c144.3-81.9,148-134.2,249.7-167C524.3-243.4,629.8,22.1,724.5-11z"/>
		<path class="st3" d="M-233.6,130.9c136,52.1,306.7-14.1,331.8-29.7C274.5-8.5,281-70.1,406.4-112.8
			c167.3-57,298.3,277.7,412.1,230.7c174.8-72.3,184.7-995.4-145.3-1174.7C458-1173.8,179-1085,26.2-997.4
			c-135.7,77.8-420.4,312.5-464.1,614.7C-465.1-194.7-401.8,66.5-233.6,130.9z"/>
		<path class="st3" d="M1238.2,226c-53.6,0.5-117.8,94-69.8,109.6c27.8,9,101.2-5.3,130.1-30.7
			C1339.2,269.2,1275.1,225.7,1238.2,226z"/>
		<path class="st3" d="M1092.6,322.6c5.2,12.6,29.8,18.1,52.2,33.4c45.4,31,52,45.8,84.2,64.5c12.6,7.3,29.5,16.9,46,12.5
			c25.3-6.7,31.6-35.9,63.8-87.3c41.7-66.8,57.4-84,45.5-119.4c-2.8-8.2-6.4-34.9-26.4-51.1c-27.8-22.5-60.4-5.1-101.1-20
			c-48.9-17.8-73.1-49.6-94.4-35.5c-14.9,9.9-15.5,36.9-26.7,84.1c-8.5,35.9-13.9,59.4-24.3,78.7
			C1099.1,305.2,1086.8,308.6,1092.6,322.6z"/>
		<path class="st3" d="M1010.7,296.4c0.9,22.3,35.6,33,64.2,65.2c58.7,66,31.5,113.1,78.5,161.3c20,20.5,51.3,40.3,82.7,36.4
			c44.6-5.5,59.5-51.8,128.1-145.7c89.7-122.8,127.8-146.9,119.5-212.3c-1.7-13.3-3.4-64.6-38.4-95.4
			c-46.7-41.1-102.7-3.7-175.9-34.6c-81.7-34.5-112.3-108.2-139.9-92.9c-19.1,10.6-11.8,53.3-26.5,136.5
			c-10.4,59.1-16.8,93.7-37.7,122C1039,272.5,1009.7,272.2,1010.7,296.4z"/>
		<path class="st3" d="M928.7,270.5c-3.5,31.9,41.4,47.9,76.3,97c71.8,100.9,9.9,179.8,72.8,258.1c26.9,33.5,73.1,63.5,119.3,60.3
			c63.9-4.3,87.6-67.5,192.5-204.2c137.9-178.6,197.3-210,193.4-305.2c-0.8-18.6-0.4-94.2-50.4-139.7
			c-65.7-59.7-145.2-2.2-250.7-49.2c-114.7-51.1-151.4-166.8-185.4-150.3c-23.3,11.4-8.4,69.6-26.3,188.9
			c-12.4,82.4-19.9,127.8-51.1,165.4C978.8,240,932.5,236.2,928.7,270.5z"/>
		<path class="st3" d="M846.5,244.7c-7.9,41.5,47.1,62.9,88.3,128.7c84.8,136-12,246.3,67.1,355c33.8,46.5,95,86.6,155.9,84.3
			c83.4-3.2,115.3-83.4,256.8-262.6c185.8-234.7,266.6-273.5,267.3-398.1c0.1-23.8,2.5-123.8-62.4-184
			c-84.7-78.3-187.7-0.7-325.5-63.8c-147.6-67.7-190.6-225.4-230.8-207.7c-27.5,12.1-5,85.9-26.2,241.3
			c-14.4,105.6-22.9,161.8-64.5,208.7C918.4,207.4,855.1,200.1,846.5,244.7z"/>
		<path class="st3" d="M764.2,218.9c13.3-54.9,93.5-44,161.8-117.7c52-56.2,61.5-123.1,77.9-252.1c24.4-191.4-5.7-280.8,26-293.7
			c46.6-18.9,95.8,180.9,276.3,265.1c170.1,79.4,296.7-18.5,400.3,78.5c79.9,74.7,75.4,199.2,74.4,228.3
			c-5.5,154.1-107.7,200.2-341.3,491c-178.1,221.7-218.3,318.9-321.2,321c-75.6,1.6-151.8-48.7-192.5-108.2
			c-95.3-139.1,36.5-281-61.4-451.8C817.1,296.6,751.8,270,764.2,218.9z"/>
		<path class="st3" d="M1445.1-665.2c-14,7.1-43.3-6.6-45.9-28c-2.9-24.3,30.3-44.4,44.9-38.1
			C1461.3-723.9,1463.6-674.6,1445.1-665.2z"/>
		<path class="st3" d="M1484.5-794.2c23.8,22.4,34.2,63.6,46.2,134.2c11.8,70,9.9,120.1-0.4,123.7c-5.6,2-21.7-13.4-35.4-24.6
			c-25.7-21-69.8-18.7-81.1-20.9c-41.3-8.3-53.5-23.8-70.8-53.4c-8-13.7-26.6-44-34.8-79.7c-12.5-54-68.6-70.7-61.8-92.3
			c5.8-18.1,61.3-22.5,97.4-23C1395.4-831,1447.6-828.9,1484.5-794.2z"/>
		<path class="st3" d="M1525.8-854.6c39.2,40.1,54.6,107.4,78.3,233.2c24.1,126.4,24,213.2,12.1,216.4c-8.9,2.5-37.8-28.8-62.3-51.1
			c-46.3-42.3-129.1-35.3-146.1-38c-77.8-12.1-97-41.1-127.2-95.9c-12.6-22.8-47-78.5-62.7-144.2c-24.2-100.7-138.8-127-129.3-164.3
			c7.9-31.1,114.2-35.8,181.1-33.3C1364-928.2,1459.6-922.3,1525.8-854.6z"/>
		<path class="st3" d="M1566.9-914.5c54.6,57.7,74.8,151.2,110.5,332.2c36.2,182.9,37.9,306.1,24.6,309.1
			c-12.2,2.9-53.9-44.2-89.2-77.7c-66.7-63.7-188.3-52-211.2-55c-114.3-15.4-140.6-58.3-183.6-138.5c-17.1-32-67.4-112.9-90.6-208.7
			c-35.8-147.3-208.9-183.4-196.8-236.4c10.1-44.1,167.1-49.4,264.8-43.6C1332.5-1025.2,1471.5-1015.4,1566.9-914.5z"/>
		<path class="st3" d="M1607.8-974.4c70,75.4,95,195,142.6,431.2c48.4,239.4,52,398.9,37.1,401.9c-15.5,3.1-70.1-59.6-116-104.3
			c-87.2-84.9-247.6-68.6-276.2-72.1c-150.8-18.4-184.4-75.4-240-181c-21.8-41.1-87.8-147.4-118.5-273.2
			c-47.4-194-279.1-239.7-264.3-308.4c12.3-57.1,220-62.8,348.5-53.9C1300.8-1121.9,1483.3-1108.6,1607.8-974.4z"/>
		<path class="st3" d="M1388.9-229.3c-187.2-21.4-227.9-92.7-296.4-223.5c-26.3-50.3-108.2-181.9-146.4-337.7
			c-59-240.7-349.2-296.1-331.8-380.5c14.5-70.2,272.9-76.1,432.2-64.2c222.6,16.6,448.6,33.5,602.3,200.9
			c85.4,93,115.2,238.8,174.8,530.3c60.5,295.9,65.9,491.7,49.6,494.6c-18.9,3.3-86.2-74.9-142.9-130.8
			C1622.5-246.3,1423.4-225.4,1388.9-229.3z"/>
		<path class="st3" d="M-133.3,342.6c21.3-82,173.8-43.5,355.5-228.3C287.3,48.1,330.9-21.2,417-32c8.7-1.1,95-10.6,155.9,45.2
			c76.6,70.1,29.9,167.5,119.3,303.2c32.9,50,38.4,35.5,62.6,74.9c103.2,168.3-54.2,339.1,36.6,510.1c41.8,78.7,103.9,96.7,98,107
			C863.9,1052.4-190.7,563.6-133.3,342.6z"/>
		<path class="st3" d="M440.7,80.2c5.2,0.7,62.1-3.6,101.1,35.9c49.4,49.8,14.2,118.3,70.7,210.9c20.8,34.1,23.7,24.8,38.5,51.8
			c63.2,115-50.2,230.7,5.3,343.3c25.7,52.1,66.3,64.1,60.2,69.2C689.3,814.4-6.8,471.5,47.8,322.3c20.5-56,132.4-36.1,260.5-156.6
			C354.9,122,386.4,72.8,440.7,80.2z"/>
		<path class="st3" d="M464.3,192.4c1.5,3.8,29.3,3.7,46.4,26.5c22.2,29.6-1.4,69.1,22.2,118.5c8.7,18.1,9,14.3,14.4,28.7
			c23.3,62-46.3,122.2-26,176.6c9.5,25.6,27.2,29.9,22.5,31.3c-34.5-4.9-366.1-194.9-314.9-271.9c20-30.1,91.4-28.6,165.5-84.9
			C422.5,195.8,440.9,180.1,464.3,192.4z"/>
		<path class="st3" d="M487.9,304.5c-18.3,53.9-90.5,72.3-116.9,52.3c-39-29.4-5.7-67.8,39-74.9
			C443.4,276.6,508.9,242.8,487.9,304.5z"/>
	</mask>
	<g class="st4">
		
			<radialGradient id="SVGID_1_" cx="458.5926" cy="808.5029" r="1" gradientTransform="matrix(-402.0021 -358.4981 -358.4981 402.0021 475423.4375 -160168.75)" gradientUnits="userSpaceOnUse">
			<stop  offset="0" style="stop-color:#555953"/>
			<stop  offset="1" style="stop-color:#555953;stop-opacity:0"/>
		</radialGradient>
		<rect x="-414.1" y="-2098.8" class="st5" width="3128.3" height="3128.3"/>
	</g>
	
		<rect x="838.1" y="608.9" transform="matrix(8.663242e-02 -0.9962 0.9962 8.663242e-02 192.8092 1462.6213)" class="st6" width="111.9" height="34.6"/>
	<path class="st7" d="M893.8,580.4l-0.7,7.8l1.7,0.1l0.4-4.9l1.4,1.6c1.4,1.6,3.2,3.7,5.4,3.9c2.2,0.2,3.6-1.1,3.9-3.8
		c0.1-1.4-0.2-2.7-0.6-3.6l-1.7,0.2c0.4,0.7,0.7,1.8,0.6,2.6c-0.1,1.6-0.8,2.3-2.3,2.2c-1.5-0.1-2.9-1.6-4.6-3.5l-2.3-2.6
		L893.8,580.4z M892.3,594.7c-0.2,2.6,1.2,4.9,5.5,5.3l0.8,0.1c4.3,0.4,6.1-1.7,6.3-4.2c0.2-2.5-1.2-4.9-5.6-5.3l-0.8-0.1
		C894.4,590.1,892.5,592,892.3,594.7z M894,594.8c0.1-1.7,1.6-2.4,4.4-2.1l1,0.1c2.9,0.2,4,1.2,3.9,2.8c-0.1,1.6-1.5,2.3-4.4,2.1
		l-0.9-0.1C895,597.4,893.9,596.5,894,594.8z M891.3,606.3c-0.2,2.6,1.2,4.9,5.5,5.3l0.8,0.1c4.3,0.4,6.1-1.7,6.3-4.2
		c0.2-2.5-1.2-4.9-5.6-5.3l-0.8-0.1C893.4,601.7,891.5,603.6,891.3,606.3z M893,606.4c0.1-1.7,1.6-2.4,4.4-2.1l1,0.1
		c2.9,0.2,4,1.2,3.9,2.8c-0.1,1.6-1.5,2.3-4.4,2.1l-0.9-0.1C894,609,892.8,608.1,893,606.4z M890.3,617.9c-0.2,2.6,1.2,4.9,5.5,5.3
		l0.8,0.1c4.3,0.4,6.1-1.7,6.3-4.2c0.2-2.5-1.2-4.9-5.6-5.3l-0.8-0.1C892.4,613.3,890.5,615.2,890.3,617.9z M892,618
		c0.1-1.7,1.6-2.4,4.4-2.1l1,0.1c2.9,0.2,4,1.2,3.9,2.8c-0.1,1.6-1.5,2.3-4.4,2.1l-0.9-0.1C892.9,620.6,891.8,619.7,892,618z
		 M889.9,625.2l-0.2,1.9l9.6,0.8l0,0.1l-9.8,2.2l-0.2,1.8l9.3,3.9l0,0.1l-9.6-0.8l-0.2,2.2l12.3,1.1l0.3-3.1l-9-3.8l0-0.1l9.5-2.2
		l0.3-3.1L889.9,625.2z M888.6,640.3l-0.4,4.1c-0.3,3.9,1.7,6.1,5.6,6.4l0.4,0c4,0.3,6-1.6,6.3-5.4l0.4-4L888.6,640.3z M890.1,642.7
		l8.8,0.8l-0.1,1.7c-0.2,2.3-1.3,3.6-4.4,3.3l-0.6-0.1c-3-0.3-4.1-1.5-3.9-3.9L890.1,642.7z M887.5,652.5l-0.2,2.2l4.6,0.4l-0.2,2.2
		c-0.2,2.6,1,4.3,3.5,4.5c2.4,0.2,3.9-1.1,4.2-4l0.4-4.3L887.5,652.5z M893.6,655.3l4.3,0.4l-0.2,1.9c-0.1,1.6-0.8,2.2-2.4,2.1
		c-1.4-0.1-2.1-0.8-1.9-2.5L893.6,655.3z M886.6,663.2l-0.6,7.4l1.7,0.2l0.5-5.2l10.6,0.9l0.2-2.2L886.6,663.2z"/>
	
		<rect x="891.3" y="285.6" transform="matrix(0.7859 -0.6183 0.6183 0.7859 -16.0596 634.6996)" class="st6" width="34.6" height="109.9"/>
	<path class="st8" d="M877.7,308.2l4.9,6.2l1.4-1.1l-3.1-3.9l2.1,0.2c2.2,0.2,4.9,0.5,6.6-0.9c1.8-1.4,1.9-3.3,0.2-5.4
		c-0.9-1.1-2-1.8-2.9-2.2l-1.1,1.3c0.7,0.3,1.7,0.8,2.2,1.5c1,1.2,1,2.2-0.2,3.1c-1.2,1-3.3,0.8-5.7,0.6l-3.4-0.3L877.7,308.2z
		 M886.5,319.7l1.3,1.6l2-1.6l1.1,1.4l1.3-1l-1.1-1.4l6.6-5.2l-0.9-1.2l-10.7,0.5l-1,0.8l3.5,4.5L886.5,319.7z M887.8,314.6l5.7-0.3
		l-3.6,2.9L887.8,314.6z M892.9,327.7c1.6,2,4.2,2.7,7.6,0.1l0.6-0.5c3.4-2.7,3.3-5.4,1.7-7.4c-1.6-2-4.2-2.8-7.7-0.1l-0.6,0.5
		C891.2,322.9,891.2,325.6,892.9,327.7z M894.2,326.7c-1-1.3-0.5-2.8,1.8-4.6l0.8-0.6c2.3-1.8,3.7-1.9,4.8-0.6
		c1,1.3,0.5,2.7-1.8,4.6l-0.7,0.6C896.7,327.9,895.2,328,894.2,326.7z M900,336.9c1.6,2,4.2,2.7,7.6,0.1l0.6-0.5
		c3.4-2.7,3.3-5.4,1.7-7.4c-1.6-2-4.2-2.8-7.7-0.1l-0.6,0.5C898.4,332.1,898.4,334.8,900,336.9z M901.4,335.8
		c-1-1.3-0.5-2.8,1.8-4.6l0.8-0.6c2.3-1.8,3.7-1.9,4.8-0.6c1,1.3,0.5,2.7-1.8,4.6l-0.7,0.6C903.8,337.1,902.4,337.1,901.4,335.8z
		 M904.8,342.5l1.2,1.5l7.5-5.9l0,0l-5.6,8.4l1.1,1.4l9.5-3.5l0,0.1l-7.5,5.9l1.4,1.7l9.7-7.6l-1.9-2.4l-9.2,3.4l0,0l5.5-8.1
		l-1.9-2.4L904.8,342.5z M914.1,354.4l2.5,3.2c2.4,3.1,5.4,3.3,8.5,0.8l0.3-0.2c3.2-2.5,3.3-5.3,0.9-8.3l-2.5-3.2L914.1,354.4z
		 M916.9,355.1l7-5.5l1.1,1.3c1.4,1.8,1.5,3.5-0.9,5.4l-0.5,0.4c-2.3,1.8-4,1.7-5.5-0.2L916.9,355.1z M921.7,364.1l1.4,1.7l3.6-2.9
		l1.4,1.8c1.6,2,3.7,2.5,5.7,0.9c1.9-1.5,2.1-3.5,0.3-5.8l-2.7-3.4L921.7,364.1z M928,361.9l3.4-2.7l1.2,1.5c1,1.3,0.9,2.1-0.3,3.2
		c-1.1,0.9-2.1,0.8-3.1-0.5L928,361.9z M928.3,372.5l4.6,5.8l1.4-1.1l-3.2-4.1l8.3-6.6l-1.4-1.7L928.3,372.5z"/>
	
		<rect x="1279.9" y="436.5" transform="matrix(0.5773 -0.8165 0.8165 0.5773 193.7033 1281.7302)" class="st6" width="109.9" height="34.6"/>
	<path class="st9" d="M1314.6,490c1.6-2.3,1.5-4.5-0.4-5.8c-1.5-1.1-2.8-0.7-4,0.4c0.4-1.4,0.1-2.6-1.1-3.5
		c-1.6-1.1-3.4-0.5-4.7,1.4c-0.7,1-1.3,2.4-1.4,3.3l1.5,0.7c0.1-0.8,0.5-1.8,1-2.5c0.8-1.1,1.6-1.5,2.7-0.8c0.9,0.7,0.9,1.8,0.1,3
		l-0.6,0.9l1.3,0.9l0.8-1c0.9-1.3,1.9-1.8,3-1c1.1,0.8,1.1,2,0.2,3.3c-0.5,0.7-1.5,1.7-2.2,1.9l1.1,1.2
		C1312.6,492.2,1313.8,491.2,1314.6,490z M1320.9,481.2c1.6-2.2,0.9-4.5-1-5.9c-1.9-1.4-3.9-0.9-5.1,0.9c-0.7,1-0.9,2.1-0.8,3
		c-2.5-2-2.5-3.5-1.5-5c0.5-0.7,1.3-1.3,1.8-1.6l-1.1-1.3c-0.5,0.2-1.5,0.9-2.2,2c-1.7,2.4-1.7,5.3,2.1,8l0.7,0.5
		C1316.6,483.7,1319.2,483.7,1320.9,481.2z M1319.5,480.3c-0.9,1.3-2.4,1.1-4.1-0.1l-0.1-0.1c-0.2-0.7-0.2-1.8,0.3-2.5
		c0.7-1,1.8-1.4,3.1-0.5C1320,478.1,1320.3,479.2,1319.5,480.3z M1327.1,472.5c1.5-2.1,1.4-4.8-2.1-7.3l-0.6-0.4
		c-3.5-2.5-6.1-1.6-7.6,0.5c-1.5,2.1-1.5,4.8,2.1,7.4l0.6,0.4C1322.9,475.4,1325.5,474.7,1327.1,472.5z M1325.7,471.5
		c-1,1.4-2.6,1.2-4.9-0.4l-0.8-0.6c-2.3-1.7-2.9-3-1.9-4.4c0.9-1.3,2.5-1.3,4.9,0.4l0.8,0.5C1326.1,468.8,1326.6,470.2,1325.7,471.5
		z M1333.8,463c1.5-2.1,1.4-4.8-2.1-7.3l-0.6-0.4c-3.5-2.5-6.1-1.6-7.6,0.5c-1.5,2.1-1.5,4.8,2.1,7.4l0.6,0.4
		C1329.6,465.9,1332.2,465.2,1333.8,463z M1332.4,462c-1,1.4-2.6,1.2-4.9-0.4l-0.8-0.6c-2.3-1.7-2.9-3-1.9-4.4
		c0.9-1.3,2.5-1.3,4.9,0.4l0.8,0.5C1332.9,459.3,1333.3,460.7,1332.4,462z M1337.8,456.9l1.1-1.6l-7.8-5.5l0,0l9.6,3l1-1.5l-6-8.1
		l0-0.1l7.8,5.5l1.3-1.8l-10.1-7.1l-1.8,2.5l5.9,7.8l0,0l-9.3-2.9l-1.8,2.5L1337.8,456.9z M1346.6,444.5l2.3-3.3
		c2.3-3.2,1.6-6.1-1.6-8.3l-0.3-0.2c-3.3-2.3-6-1.6-8.2,1.4l-2.3,3.3L1346.6,444.5z M1346.4,441.7l-7.2-5.1l1-1.4
		c1.4-1.9,2.9-2.5,5.5-0.7l0.5,0.3c2.4,1.7,2.8,3.3,1.4,5.3L1346.4,441.7z M1353.7,434.5l1.3-1.8l-3.8-2.7l1.3-1.8
		c1.5-2.1,1.3-4.2-0.8-5.7c-2-1.4-3.9-1-5.6,1.4l-2.5,3.5L1353.7,434.5z M1349.8,429.1l-3.6-2.5l1.1-1.5c1-1.3,1.8-1.5,3.1-0.6
		c1.2,0.8,1.4,1.8,0.4,3.1L1349.8,429.1z M1359.8,425.8l4.3-6.1l-1.4-1l-3,4.3l-8.7-6.1l-1.3,1.8L1359.8,425.8z"/>
	<g>
		<circle class="st6" cx="1258" cy="132" r="286"/>
	</g>
	<g>
		<circle class="st6" cx="1211" cy="783" r="286"/>
	</g>
	<path class="st10" d="M972,654.3C1214.8,761.4,1219,352,1219,292"/>
	<path class="st11" d="M1224.1,283.2c0.1-0.4,0.4-0.6,0.8-0.7c12.7-2.8,22.2-14.1,22.2-27.4c0-15.5-12.8-28.1-28.5-28.1
		s-28.5,12.6-28.5,28.1c0,14,10.3,25.5,23.8,27.8c0.4,0.1,0.7,0.3,0.8,0.7l2.8,9c0.6,1.9,3.2,1.9,3.8,0L1224.1,283.2z"/>
	<path class="st12" d="M1204,269.9h30v-30h-30V269.9z"/>
	<circle class="st13" cx="971" cy="652.9" r="35"/>
	<circle class="st14" cx="971.5" cy="652.4" r="17.5"/>
	<circle class="st15" cx="971" cy="652.9" r="7"/>
</g>
<g>
	<path class="st16" d="M1209.4,232.9C1209.5,232.9,1209.5,232.9,1209.4,232.9c0.2-0.2,0.4-0.3,0.6-0.3c2.1-0.8,4.2-1.3,6.4-1.5
		c4.7-0.5,9.2,0.1,13.5,2.3c2.7,1.4,5,3.3,6.9,5.7c1.6,1.9,2.8,4,3.6,6.3c0.6,1.6,0.3,3.1-0.8,4.5c-0.3,0.3-0.2,0.5,0,0.8
		c0.6,0.7,1.1,1.5,1.4,2.4c0.8,2,0.3,3.9-1.5,5.1c-1.8,1.2-4.4,1.1-5.8-0.2c-0.6-0.6-0.6-0.6-1.3,0c-1.1,0.9-3,1.3-4.1,0.7
		c-1.8-1-2.6-3.3-1.8-5.1c0.2-0.5,0.1-0.8-0.2-1.2c-1.2-1.5-2.6-2.8-4.3-3.7c-5.1-2.9-12.5-2.9-17.8,2.2c-3.2,3.1-5,6.8-5,11.3
		c0.1,3.7,1.2,7,3.6,9.9c0.1,0.1,0.1,0.2,0.2,0.4c-0.1-0.1-0.2-0.1-0.3-0.2c-1.3-1.2-2.4-2.5-3.5-3.9c-2-2.6-3.1-5.5-3.7-8.7
		c-0.4-2.6-0.7-5.2-0.4-7.7c0.7-5,2.8-9.4,6.1-13.2c1.7-1.9,3.6-3.4,5.8-4.6C1208,233.4,1208.7,233,1209.4,232.9
		C1209.5,232.9,1209.5,232.9,1209.4,232.9z M1198.3,252.8c0-0.2,0-0.3,0-0.5c-0.3,0-0.3,0.2-0.3,0.4c-0.7,1.5-0.9,3.2-1,4.8
		c0,1.5,0.1,3.1,0.5,4.5c0.1,0.2,0.1,0.4,0.3,0.5c0,0,0,0,0,0c0,0,0,0,0,0C1197.4,259.4,1197.6,256.1,1198.3,252.8z M1224.5,240.2
		c-0.1,0.8-0.5,1.6-1,2.2c-0.2,0.3-0.2,0.6-0.1,0.9c0.5,0.9,1.2,1.6,2.3,1.8c1.3,0.2,2.7,0.2,3.8-0.6c0.2-0.2,0.4-0.3,0.6-0.6
		c0.3-0.3,0.4-0.6,0-1c-1.1-1.1-1.2-2.5-0.8-4c0.1-0.2,0.1-0.4,0.3-0.4c0,0.2,0,0.3,0.1,0.5c0.1,1.9,0.9,3.3,2.7,4.1
		c1,0.4,2,0.5,3.1,0.1c0.1,0,0.3-0.2,0.4,0c0,0-0.1,0.2-0.2,0.3c-0.6,0.6-1.3,0.8-2.1,0.8c-0.6,0-0.8,0.3-0.8,0.8
		c-0.1,0.4-0.1,0.9-0.1,1.3c0,3.2,2.8,4.1,4.8,3.5c0.9-0.2,1.4-0.9,1.7-1.8c0.3-1,0.3-2,0-3c-0.6-2.3-1.9-4.2-3.4-6
		c-1.9-2.3-4.3-4.1-7.1-5.1c-2.8-1-5.7-1.4-8.7-1.2c-1,0.1-2,0.2-3,0.3l0.1,0l0,0c-0.5,0.3-1,0.3-1.5,0.4c-1.9,0.5-3.7,1.3-5.3,2.3
		c-0.1,0.1-0.4,0.1-0.3,0.3c0.1,0.2,0.3,0,0.4,0c2.4-0.5,4.7-1.1,7.2-1.2c3-0.2,6-0.1,9,0.6c0.2,0,0.4,0,0.5,0.2c-0.2,0-0.3,0-0.5,0
		c-3.7-0.3-7.3,0.3-10.7,1.5c-2.5,0.9-4.9,2.2-7.1,3.7c-0.1,0.1-0.4,0.2-0.3,0.4c0.1,0.1,0.3-0.1,0.4-0.1c2.6-1.4,5.4-2.1,8.3-2.5
		c0.8-0.1,1.5-0.1,2-0.8c0.1-0.2,0.4-0.4,0.7-0.4c0,0.3-0.2,0.4-0.3,0.6c-0.5,1-0.4,2.2,0.3,2.9c0.7,0.7,2.2,0.9,3.2,0.4
		c0.5-0.2,0.9-0.5,1.2-0.9C1224,240.5,1224.2,240.3,1224.5,240.2L1224.5,240.2z M1206.8,247c0.2,0.3,0.4,0,0.6-0.1
		c2.3-0.9,4.7-1.7,7.2-1.6c5.3,0.1,9.9,1.8,13.3,6c0.4,0.5,0.7,0.4,1.1,0c1.1-1,1.1-1-0.1-2c-0.4-0.4-0.9-0.8-1.3-1.1
		c-0.1-0.1-0.2-0.1-0.2-0.2c0.1,0,0.2,0,0.3,0.1c0.7,0.3,1.4,0.7,2,1.2c0.5,0.4,0.7,0.2,1-0.2c0.7-0.9,0.3-1.9,0.2-2.9
		c0-0.4-0.3-0.1-0.5-0.1c-1,0.5-2,0.8-3.1,0.8c-2.2,0-4-0.6-5.4-2.4c-0.1-0.2-0.3-0.3-0.6-0.4c-4.9-0.4-9.6,0.2-13.9,2.5
		C1207.1,246.8,1206.7,246.9,1206.8,247z M1232.6,253.9c0.3,0.1,0.5,0.5,0.8,0.4c1-0.1,2,0,2.8-0.7c0.1-0.1,0.3-0.3,0.4-0.1
		c0.1,0.1-0.1,0.3-0.2,0.4c-0.5,0.7-1.3,1.1-2.2,1.1c-0.6,0-0.5,0.2-0.3,0.6c1,1.5,3,2.2,4.5,1.5c1.7-0.8,1.9-2.5,1.6-4
		c-0.1-0.3-0.2-0.6-0.3-0.8c-0.6-1.3-0.7-1.2-2-0.9c-2.1,0.5-4-0.1-5.6-1.5c-0.6-0.5-0.9-0.5-1.2,0.2c-0.5,1-0.2,1.9,0.2,2.5
		C1231.6,253.3,1232,253.7,1232.6,253.9z M1231.8,254.7c-0.8-0.4-1.5-1.1-1.9-1.9c-0.2-0.3-0.4-0.3-0.7-0.2
		c-1.6,0.6-2.2,1.8-1.6,3.2c0.7,1.7,2.2,2.3,3.7,1.6c0.2-0.1,0.3-0.2,0.6-0.3C1233.1,256.5,1232.9,255.3,1231.8,254.7z
		 M1208.3,244.7c2.1-0.9,4.3-1.6,6.5-1.9c1.1-0.2,2.1-0.3,3.2-0.3c0.2,0,0.4,0.1,0.4-0.1c0-0.1-0.1-0.2-0.2-0.3
		c-0.1-0.2-0.4-0.3-0.4-0.6c-0.2-0.7-0.6-0.7-1.2-0.6c-3,0.7-5.8,2-8.5,3.7c-0.2,0.1-0.2,0.2-0.1,0.2
		C1208.1,244.7,1208.2,244.7,1208.3,244.7z M1201.5,244.4c0,0.1-0.1,0.1-0.1,0.2c0,0.2-0.3,0.4-0.1,0.5c0.3,0.2,0.3-0.2,0.3-0.4
		c0.9-1.2,1.9-2.3,3.1-3.3c1-0.9,2.2-1.8,3.4-2.4c0.1,0,0.2-0.1,0.3-0.2c-0.1-0.1-0.3,0-0.4,0c-0.8,0.3-1.7,0.7-2.4,1.2
		C1203.9,241.2,1202.6,242.8,1201.5,244.4z M1202,248c-0.1,0.1-0.2,0.3-0.1,0.4c0.1,0.1,0.2-0.1,0.3-0.2c0.7-0.9,1.4-1.7,2.1-2.6
		c0.1-0.1,0.3-0.3,0.2-0.4c-0.1-0.1-0.2,0.2-0.3,0.2C1203.3,246.1,1202.6,247,1202,248z M1225,246L1225,246L1225,246L1225,246z"/>
	<path class="st16" d="M1216.7,272.3c-0.2,0.1-0.4,0-0.5-0.1c-0.6-0.4-1.3-0.5-1.9-0.4c-0.5,0.1-0.9,0-0.7-0.7c0-0.1,0-0.2-0.1-0.2
		c0,0-0.1,0.1-0.1,0.2c-0.1,0.4-0.2,0.7-0.2,1.1c0,0.2,0,0.4-0.2,0.4c-0.2,0-0.2-0.2-0.3-0.4c-0.3-0.8-0.6-1.6-1-2.3
		c-0.6-1.6-1.1-3.2-1.1-5c0-0.2-0.1-0.5,0.3-0.6c0.7-0.1,1.5-0.2,2.2,0.1c0.6,0.2,0.9,0.8,0.8,1.5c0,0.6-0.3,0.8-0.8,0.8
		c-0.3,0-0.5,0-0.8,0.3c-0.2,0.2-0.6,0.1-0.7,0.4c0.3,0.1,0.6-0.1,1-0.1c0.1,0,0.2,0,0.3-0.1c1.6-0.5,2.8,0.1,3.9,1.2
		c1.2,1.3,2.5,2.5,3.8,3.6c0.3,0.2,0.5,0.4,0.9,0.3c0.9-0.4,1.9-0.7,2.8-1.1c0.1,0,0.3-0.1,0.3-0.2c0-0.1-0.2-0.1-0.3,0
		c-0.9,0.3-1.8,0.6-2.6,0.9c-0.4,0.1-0.7,0.1-0.9-0.2c-0.8-0.9-1.6-1.7-2.4-2.5c-0.3-0.3-0.1-0.4,0.2-0.4c0.7-0.1,1.5-0.2,2.2-0.3
		c2.9-0.4,5.8-0.5,8.7,0.2c1.6,0.4,3.1,1,4.3,2.3c0.3,0.4,0.4,0.7,0,1.1c-0.5,0.6-1.1,1.2-1.7,1.6c-2.3,1.5-4.8,2.2-7.5,2.4
		c-1.2,0.1-2.4,0-3.6,0c-1.7,0-3.5-0.3-5.1-0.7c-0.9-0.2-1.9-0.4-2.4-1.5c-0.1-0.3-0.2-0.5-0.1-0.8c0.2-0.3,0.5-0.1,0.7-0.1
		c1.2,0.1,2.5,0.4,3.7,0.2c1-0.1,1.6,0.4,2.2,0.9c0.3,0.2,0.5,0.5,0.7,0.8c0.3,0.4,0.7,0.5,1.2,0.3c0.6-0.3,1-0.7,1.6-1.1
		c0.1-0.1,0.1-0.1,0.2-0.2c-0.1-0.1-0.2,0-0.3,0.1c-0.5,0.3-0.9,0.6-1.4,0.8c-0.3,0.2-0.7,0.3-0.9-0.1c-0.6-1-1.6-1.3-2.5-1.8
		c-1.2-0.7-2.5-1.3-3.4-2.5c-0.4-0.6-0.8-0.7-1.4-0.5c-0.2,0.1-0.4,0-0.4,0.2c0,0.1,0.3,0.1,0.4,0c0.6-0.1,0.9,0.1,1.2,0.6
		C1215.3,271.5,1216,272,1216.7,272.3L1216.7,272.3z M1225.3,272.9c0.9-0.1,1.7-0.2,2.6-0.2c0.2,0,0.5-0.2,0.5,0.2
		c0,0.1,0.2,0.1,0.2,0c0.1-0.5,0.6-0.4,0.9-0.4c1.2-0.2,2.4-0.4,3.6-0.6c0.1,0,0.3,0,0.3-0.2c0-0.2-0.2-0.1-0.3-0.1
		c-2.4,0-4.7,0-7.1,0c-0.4,0-1.1,0.8-1.2,1.1c0,0,0,0.1,0,0.1C1225,273,1225.1,272.9,1225.3,272.9z"/>
	<path class="st16" d="M1209.2,256.1c0,0.1,0.1,0.2,0.2,0.3c0.7,0.4,1.1,1,1.2,1.8c0.2,0.9,0.4,1.7,0.2,2.6c-0.1,0.9-0.3,1.1-1.2,1
		c-0.1,0-0.3-0.1-0.4-0.1c-0.1,0-0.2,0-0.3,0c-0.1,0.1,0.1,0.2,0.2,0.2c0.7,0.5,0.9,1.1,1,1.9c0.1,1,0.2,2.1,0.3,3.1
		c0.3,2.3,1.5,4.3,2.3,6.5c0.4,1.1,1.1,1.7,2.1,2c0.1,0,0.4,0,0.4,0.2c0,0.2-0.3,0.1-0.4,0.1c-0.5-0.1-0.4,0.1-0.3,0.4
		c0.2,0.3,0.4,0.7,0.7,1c0.1,0.1,0.2,0.3,0,0.4c-0.1,0.1-0.2-0.1-0.3-0.2c-0.1-0.1-0.2-0.2-0.2-0.2c-0.1,0.2,0.1,0.2,0.1,0.3
		c0.1,0.2,0.3,0.3,0.1,0.5c-0.1,0.1-0.2-0.2-0.3-0.3c0,0-0.1-0.1-0.1-0.2c-0.1-0.1-0.2-0.2-0.2-0.1c-0.1,0.1,0,0.2,0,0.3
		c0.1,0.2,0.3,0.4,0.2,0.5c-0.2,0.1-0.3-0.2-0.5-0.3c-0.1-0.1-0.1-0.2-0.2-0.3c-0.1-0.1-0.2-0.4-0.4-0.3c-0.1,0.1,0,0.3,0,0.5
		c0,0.1,0.1,0.3-0.1,0.3c-0.1,0-0.1-0.2-0.2-0.3c-0.5-1.1-0.9-2.3-1.6-3.3c-0.5-0.8-1.1-1.6-1.6-2.5c-0.5-0.8-1-1.5-1.1-2.4
		c-0.1-0.3-0.2-0.7-0.4-0.9c-0.4-0.6-0.9-1.2-1.1-1.9c0-0.1-0.1-0.1-0.1-0.2c0,0.1,0,0.2,0,0.3c0.1,0.6,0.3,1.2,0.5,1.8
		c0.2,0.5,0.6,1,0.6,1.6c0,0.6,0.6,1,0.5,1.6c0.8,0.4,0.9,1.2,1.4,1.8c0.1,0.1,0.2,0.2,0.1,0.3c-0.1,0.1-0.2,0-0.3,0
		c-0.7-0.3-1.5-0.5-2.2-0.8c-0.2-0.1-0.5-0.1-0.5-0.3c0-0.2,0.3-0.2,0.5-0.4c0.2-0.2,0.7-0.2,0.6-0.5c-0.1-0.2-0.5,0-0.7,0.1
		c-0.2,0-0.3,0.1-0.5,0.1c-1.6,0.3-2.5-0.2-3.1-1.7c-0.5-1-0.8-2-1-3.1c-0.6-3.3,0.1-6.1,2.8-8.3c0.2-0.1,0.4-0.5,0.6-0.1
		c0.1,0.1,0.1,0.3,0.2,0.2c0.2-0.1,0.1-0.2,0-0.4c-0.2-1.3,0.2-1.9,1.4-2.4c0.2-0.1,0.4-0.3,0.6-0.4c2-2,4.2-3.7,7.1-4.3
		c0.6-0.1,1.2-0.2,1.6-0.7c0.4-0.4,0.8-0.3,1.2,0c0.3,0.2,0.6,0.4,0.8,0.6c0.2,0.2,0.3,0.4,0,0.5c-0.7,0.3-1.3,0.7-2.1,0.5
		c-0.4-0.1-0.7-0.1-1,0.1c-1.8,1.1-3.7,2-5.1,3.7c-0.2,0.2-0.4,0.6-0.8,0.3C1210,256.3,1209.6,256.3,1209.2,256.1
		C1209.2,256.1,1209.2,256.1,1209.2,256.1z"/>
	<path class="st16" d="M1217.6,278.1c0.2,0.1,0.5,0.1,0.7,0.1c2.5,0,4.9-0.2,7.3-0.9c1.6-0.5,3.2-0.9,4.7-1.8
		c0.1-0.1,0.2-0.1,0.4-0.2c-0.1,0-0.3,0-0.4,0.1c-3.8,1.4-7.6,2-11.7,1.9c-0.9,0-1.8-0.1-2.7-0.4c-0.3-0.1-0.6-0.2-0.3,0.3
		c0.1,0.1,0.1,0.3,0,0.3c-0.6,0.8,0.2,0.6,0.5,0.6C1216.6,278.1,1217.1,278.3,1217.6,278.1c0-0.1,0-0.2,0.2-0.1c0,0,0,0,0,0
		C1217.8,278.1,1217.7,278.1,1217.6,278.1z"/>
	<path class="st16" d="M1206.1,274.2c1.7,0.7,3.5,1.1,5.3,1.4c0.2,0,0.3,0,0.4,0.2c0.2,0.4,0.5,0.9,0.7,1.4c0,0.1,0.2,0.2,0,0.3
		c-0.1,0-0.2,0-0.3,0c-0.5-0.2-1-0.3-1.5-0.5c-1.7-0.6-3.3-1.5-4.7-2.6c-0.1,0-0.2-0.1-0.1-0.2C1206,274.1,1206,274.1,1206.1,274.2z
		 M1211.4,276.8C1211.4,276.8,1211.4,276.8,1211.4,276.8C1211.4,276.8,1211.4,276.9,1211.4,276.8
		C1211.4,276.8,1211.4,276.8,1211.4,276.8z"/>
</g>
</svg>
