<?xml version="1.0" standalone="no"?>
<!DOCTYPE svg PUBLIC "-//W3C//DTD SVG 20010904//EN"
 "http://www.w3.org/TR/2001/REC-SVG-20010904/DTD/svg10.dtd">
<svg version="1.0" xmlns="http://www.w3.org/2000/svg"
 width="1772.000000pt" height="1772.000000pt" viewBox="0 0 1772.000000 1772.000000"
 preserveAspectRatio="xMidYMid meet">

<g transform="translate(0.000000,1772.000000) scale(0.100000,-0.100000)"
fill="#1b3b6f" stroke="none">
<path d="M11666 12757 c-61 -47 -340 -370 -388 -450 -88 -146 -333 -648 -388
-797 -70 -191 -92 -234 -190 -368 -64 -88 -98 -125 -153 -165 -155 -113 -229
-152 -411 -214 -146 -50 -250 -101 -400 -199 -195 -128 -337 -246 -482 -401
-151 -160 -592 -597 -796 -788 -71 -66 -128 -122 -128 -125 0 -3 17 -12 38
-19 20 -7 138 -53 262 -101 279 -109 369 -137 381 -118 5 7 9 20 9 29 0 23
126 73 289 115 75 19 187 51 248 71 l113 37 79 -38 79 -39 4 -46 c3 -26 17
-74 32 -106 28 -59 102 -292 126 -392 12 -54 45 -97 84 -109 11 -4 104 -45
206 -91 102 -46 191 -87 198 -90 10 -4 11 16 6 98 -5 87 -4 111 11 144 9 22
25 67 35 100 21 72 42 115 126 257 121 205 147 271 184 470 29 158 54 237 90
280 32 39 175 129 272 172 89 39 194 63 352 81 171 18 255 39 403 96 357 138
641 301 893 511 305 255 419 375 495 520 55 105 134 297 124 303 -5 3 -44 -42
-86 -101 -43 -59 -90 -121 -104 -138 -27 -30 -27 -30 -78 -17 -27 7 -55 10
-61 6 -5 -3 -10 -38 -10 -76 0 -96 -28 -149 -112 -214 -78 -59 -476 -285 -585
-332 -78 -33 -147 -54 -253 -75 -145 -29 -145 -29 -250 -14 -58 8 -142 18
-187 22 -90 7 -93 10 -93 86 0 35 7 43 88 113 48 42 137 109 197 149 133 88
219 165 247 219 16 33 19 49 12 86 -4 25 -7 78 -7 117 0 68 -2 72 -29 88 -20
13 -28 25 -28 46 0 15 -3 36 -6 45 -4 9 -57 42 -118 73 l-111 57 -95 0 c-84 0
-105 -4 -180 -34 -50 -20 -98 -47 -118 -67 -31 -31 -32 -35 -31 -111 1 -80
-11 -125 -60 -220 -12 -22 -24 -58 -27 -79 -3 -22 -22 -74 -42 -116 -33 -67
-41 -77 -69 -83 -45 -10 -70 -1 -128 43 -62 47 -65 67 -29 193 22 77 26 106
21 167 -4 53 -1 83 10 109 8 20 13 48 10 61 -3 14 3 44 13 67 28 66 48 180 55
312 3 67 10 134 15 150 5 15 14 54 20 85 9 46 34 93 129 240 148 230 304 465
330 498 11 14 21 28 21 33 0 15 -46 5 -74 -16z"/>
<path d="M3532 10299 c-120 -11 -148 -20 -163 -52 -22 -49 7 -83 265 -316 135
-122 246 -226 246 -230 0 -32 266 -194 557 -340 111 -55 294 -151 405 -212
258 -142 954 -493 1163 -587 155 -70 292 -127 694 -293 106 -44 225 -87 265
-95 44 -9 125 -40 216 -84 80 -38 183 -79 230 -91 47 -12 90 -25 97 -28 6 -3
-130 -6 -302 -6 -172 0 -316 3 -319 6 -4 3 -30 1 -59 -6 -33 -7 -119 -10 -232
-9 -110 2 -196 -1 -220 -8 -22 -6 -66 -12 -98 -13 -32 -2 -60 -5 -62 -7 -3 -3
-28 -1 -57 3 -70 10 -188 11 -188 2 0 -5 -62 -9 -137 -10 -233 -3 -592 -5
-703 -4 -83 2 -233 -3 -345 -9 -5 -1 -50 0 -100 1 -49 0 -158 0 -240 0 -111
-1 -162 2 -193 13 -43 15 -58 5 -22 -14 26 -14 17 -30 -18 -30 -56 -1 3 -18
96 -29 51 -5 96 -12 100 -15 23 -14 384 -17 1557 -13 83 0 265 -1 405 -2 140
-2 266 0 280 3 14 4 116 11 227 16 111 5 276 17 365 26 199 20 180 19 313 9
187 -14 382 -11 396 7 12 17 180 28 640 40 266 7 511 11 544 10 33 -2 229 -4
435 -5 206 -1 690 -7 1075 -13 889 -14 1223 -13 1233 3 8 12 43 9 271 -22 132
-17 201 -19 201 -5 0 6 -9 19 -20 30 -20 20 -20 20 10 20 37 0 100 25 100 39
0 6 -18 11 -40 11 -41 0 -55 18 -21 27 26 7 36 33 13 34 -27 1 -130 -3 -217
-8 -44 -3 -181 -7 -305 -9 -124 -2 -315 -6 -425 -9 -177 -4 -207 -3 -265 15
-36 10 -157 42 -270 70 -224 56 -198 46 -894 362 -523 238 -942 414 -1134 477
-97 32 -271 93 -387 136 -400 147 -981 336 -1305 425 -434 119 -932 267 -1107
329 -78 27 -253 79 -390 115 -136 36 -307 83 -378 105 -72 21 -175 48 -230 60
-196 40 -368 72 -468 86 -56 8 -154 25 -217 39 -63 13 -171 32 -240 41 -149
20 -484 27 -628 14z m4821 -1925 c67 -20 183 -64 257 -99 357 -166 486 -228
495 -237 7 -7 -24 -9 -95 -6 l-106 5 -202 107 c-184 97 -298 154 -450 222 -29
13 -50 29 -47 34 9 14 13 14 148 -26z"/>
<path d="M13438 10071 c-153 -75 -173 -89 -188 -136 -20 -60 -125 -146 -325
-265 -49 -30 -138 -97 -198 -151 -116 -104 -278 -224 -422 -313 -117 -72 -131
-83 -123 -91 12 -12 147 58 223 115 39 28 120 82 180 120 61 38 148 96 195
129 85 61 100 69 100 52 0 -10 -245 -185 -657 -471 -100 -69 -121 -90 -86 -90
47 0 323 174 431 272 81 74 343 250 431 290 70 31 133 82 400 322 155 141 251
238 251 257 0 7 -57 30 -69 28 -3 0 -68 -31 -143 -68z"/>
<path d="M13298 9372 c-10 -2 -77 -37 -150 -78 -136 -77 -215 -143 -279 -232
-31 -43 -31 -44 -8 -37 55 17 149 72 224 130 44 34 121 88 170 120 111 71 126
89 83 97 -13 2 -31 2 -40 0z"/>
<path d="M13713 9228 c-66 -66 -76 -72 -125 -79 -109 -15 -155 -31 -252 -86
-149 -83 -240 -140 -295 -183 -50 -39 -483 -250 -514 -250 -36 0 -75 29 -82
60 -6 25 -2 34 25 56 32 27 64 78 58 94 -3 9 -178 -97 -359 -216 -42 -28 -121
-70 -175 -94 -133 -58 -197 -90 -191 -97 3 -3 22 0 42 7 20 7 47 9 61 6 21 -6
24 -12 24 -52 0 -44 1 -45 28 -40 67 13 122 17 142 11 30 -9 23 -13 -46 -26
-102 -18 -147 -37 -169 -72 -16 -25 -42 -41 -125 -75 -109 -45 -117 -49 -108
-58 9 -8 349 72 431 102 96 35 166 54 197 54 14 0 36 7 49 16 12 9 46 18 74
20 29 3 113 18 187 34 74 16 164 34 200 40 117 20 424 90 485 111 73 24 177
78 153 79 -54 1 -439 -91 -623 -150 -69 -22 -136 -40 -149 -40 -30 0 -76 36
-76 59 0 24 69 128 112 168 21 21 233 133 557 296 288 145 527 271 533 280 5
10 8 35 6 57 l-3 40 -72 -72z"/>
<path d="M11124 8816 c-10 -8 -17 -17 -14 -19 7 -8 90 16 90 25 0 13 -55 9
-76 -6z"/>
<path d="M11388 8689 c-123 -58 -235 -103 -325 -130 -76 -23 -176 -59 -223
-79 -47 -21 -113 -44 -148 -51 -68 -13 -66 -10 -76 -99 l-5 -46 67 -23 c37
-13 72 -26 79 -28 23 -9 25 43 4 85 -12 23 -21 43 -21 46 0 12 81 51 189 91
66 24 142 55 168 68 26 13 80 34 118 47 60 20 370 169 415 199 12 8 7 11 -20
10 -22 0 -103 -33 -222 -90z"/>
<path d="M13902 8608 c-22 -44 -42 -148 -29 -148 9 0 60 167 55 181 -2 7 -14
-8 -26 -33z"/>
<path d="M12518 8286 c-60 -17 -108 -36 -108 -42 0 -7 37 -1 99 17 95 26 141
44 141 54 0 8 -22 4 -132 -29z"/>
<path d="M12318 8233 c-10 -2 -18 -9 -18 -15 0 -6 10 -8 23 -4 12 3 25 6 30 6
4 0 7 5 7 10 0 10 -12 11 -42 3z"/>
<path d="M11593 8128 c-19 -9 -32 -28 -19 -28 18 0 65 24 60 31 -6 11 -13 11
-41 -3z"/>
<path d="M11413 8089 c-52 -15 -38 -27 17 -15 28 5 50 14 50 18 0 10 -26 9
-67 -3z"/>
<path d="M13371 7824 c-177 -23 -324 -44 -326 -46 -1 -2 -14 -43 -28 -93 -25
-89 -26 -100 -43 -705 l-16 -615 56 -544 c30 -299 57 -545 58 -547 6 -5 885
179 892 187 2 2 -4 83 -13 179 l-16 175 -70 -3 c-133 -5 -131 -3 -150 -81 -13
-55 -21 -70 -38 -75 -81 -20 -381 -66 -387 -59 -4 4 -27 177 -51 384 -43 375
-43 378 -30 510 7 74 15 143 17 155 5 20 17 22 242 39 130 10 241 21 246 25 5
5 1 50 -9 103 -22 112 10 98 -268 123 -103 10 -192 21 -197 24 -5 3 -12 120
-16 270 l-7 265 179 63 c99 34 184 62 189 62 6 0 31 -39 56 -85 l45 -86 87 94
86 95 -80 116 c-44 64 -81 115 -82 115 -1 -1 -148 -21 -326 -45z"/>
<path d="M14223 7849 l-83 -21 0 -38 c0 -44 97 -1913 104 -2002 l4 -57 -44
-26 -44 -26 0 -114 c0 -63 4 -116 9 -119 8 -5 359 69 368 77 2 2 -10 187 -27
411 -16 225 -30 415 -30 424 0 10 53 -102 119 -248 65 -146 146 -326 181 -402
l62 -136 37 13 c59 21 276 106 278 109 2 2 -8 58 -22 126 -14 67 -25 125 -25
127 0 5 -71 -4 -101 -13 -12 -3 -40 46 -119 208 -156 320 -300 630 -300 643 0
7 102 85 228 174 125 89 238 170 252 180 l24 18 -26 337 c-15 185 -30 340 -32
345 -3 4 -146 11 -318 15 -172 3 -335 8 -363 11 -31 3 -81 -3 -132 -16z m622
-391 c28 -139 28 -142 9 -155 -78 -56 -399 -271 -402 -269 -2 3 -31 486 -32
533 0 26 17 28 246 31 l151 2 28 -142z"/>
<path d="M11934 7562 l-72 -297 236 -465 235 -465 77 -303 76 -303 -83 -125
c-46 -68 -87 -124 -92 -124 -5 0 -41 14 -81 32 l-73 32 6 83 c3 46 2 83 -3 83
-10 0 -124 -26 -181 -40 l-35 -10 -13 -137 c-7 -76 -15 -147 -17 -158 -4 -18
21 -37 168 -127 95 -59 189 -116 209 -127 l36 -21 228 235 228 236 -7 166 -7
167 -120 367 -120 368 -117 208 c-65 114 -151 269 -192 343 l-74 135 34 130
c51 199 33 184 149 126 l99 -50 -26 -49 -26 -49 59 -71 c32 -40 61 -72 64 -72
6 0 105 106 180 192 l32 36 -127 176 -127 176 -226 0 -226 0 -71 -298z"/>
<path d="M10755 7792 l-79 -47 -278 -1165 c-152 -641 -282 -1189 -288 -1218
-10 -46 -16 -55 -50 -72 -21 -11 -41 -23 -43 -27 -2 -5 -8 -60 -11 -124 l-7
-116 148 -6 c81 -3 148 -5 150 -4 1 2 46 207 100 457 l98 455 100 8 c173 13
540 34 543 31 2 -1 55 -146 117 -321 184 -518 192 -538 199 -537 3 1 60 5 125
9 l119 7 26 111 c15 62 26 117 26 123 0 6 -26 23 -58 38 l-59 28 -166 507
c-145 440 -358 1102 -554 1720 -32 102 -63 186 -68 188 -6 2 -46 -18 -90 -45z
m200 -1096 c80 -258 144 -470 143 -471 -2 -1 -115 -5 -251 -8 l-249 -5 5 26
c86 450 193 959 199 945 5 -10 73 -229 153 -487z"/>
<path d="M9430 7779 c0 -34 -61 -1043 -63 -1045 -1 -1 -79 0 -174 3 l-171 6
-6 151 c-3 83 -8 311 -12 506 -3 195 -7 356 -8 358 -6 5 -308 33 -313 29 -2
-3 -17 -49 -33 -102 l-28 -96 44 -22 44 -21 0 -1172 0 -1172 -31 -26 -31 -27
7 -84 c6 -76 9 -86 28 -90 35 -7 290 -35 293 -32 2 2 -1 306 -6 677 -5 371
-10 710 -10 752 l0 77 228 3 c125 2 228 2 230 2 1 -1 22 -333 45 -737 24 -405
46 -739 50 -743 10 -10 280 34 288 47 4 6 10 39 13 73 4 33 10 78 13 98 5 35
3 37 -36 57 -29 16 -41 28 -41 44 0 12 -14 303 -31 647 -31 640 -33 839 -13
1447 l6 181 29 12 c20 9 29 20 29 35 0 30 -21 138 -29 147 -6 7 -235 38 -283
38 -22 0 -28 -5 -28 -21z"/>
<path d="M5307 7755 c-81 -18 -149 -34 -151 -36 -2 -2 16 -69 39 -149 46 -158
45 -156 115 -137 24 6 28 2 62 -76 20 -45 101 -230 181 -412 l145 -330 12
-820 c7 -451 13 -821 14 -822 4 -5 241 49 247 55 4 4 14 344 24 757 l18 749
104 226 c58 124 150 324 205 445 55 121 102 221 103 223 1 2 23 -7 49 -19 25
-13 47 -21 49 -18 5 6 57 270 57 290 0 10 -15 20 -37 27 -21 7 -87 27 -146 46
l-109 35 -67 -142 c-291 -614 -345 -726 -349 -722 -4 4 -292 646 -360 802 -17
39 -33 62 -42 62 -8 0 -82 -16 -163 -34z"/>
<path d="M7877 7726 l-218 -51 -112 -153 -113 -153 3 -97 c2 -53 10 -437 18
-852 8 -415 18 -839 21 -942 l6 -188 145 -165 c80 -91 152 -165 159 -165 26 0
629 122 636 129 7 6 -37 470 -45 478 -3 2 -47 -8 -100 -23 l-95 -26 5 -74 c5
-60 3 -75 -9 -79 -9 -4 -65 -21 -125 -39 l-110 -33 -105 103 -104 103 -17 847
-17 846 51 114 c28 63 55 117 59 119 18 11 303 56 310 48 4 -4 15 -40 24 -78
l17 -71 76 -28 c50 -19 78 -25 82 -17 10 16 94 292 90 295 -2 1 -61 48 -131
104 -97 78 -134 102 -155 101 -15 -1 -126 -24 -246 -53z"/>
<path d="M4485 7728 c-44 -22 -81 -41 -82 -42 -1 -1 -49 -172 -107 -381 -58
-209 -192 -685 -298 -1058 l-193 -678 -41 -10 c-40 -10 -42 -13 -48 -56 -8
-59 -8 -163 0 -163 3 0 67 -14 141 -31 74 -17 139 -27 143 -22 4 4 52 177 105
383 53 206 100 378 104 381 3 4 112 -2 241 -12 129 -10 272 -21 317 -24 l81
-7 46 -131 c26 -73 93 -267 150 -432 l103 -300 124 -16 c68 -8 125 -14 126
-14 2 1 16 51 32 112 l29 111 -62 39 -61 39 -43 140 c-193 621 -712 2214 -721
2214 -3 -1 -42 -19 -86 -42z m96 -740 c142 -445 228 -723 223 -727 -5 -5 -485
36 -491 42 -3 4 199 877 204 877 1 0 30 -87 64 -192z"/>
<path d="M2620 7728 c0 -3 -16 -40 -35 -81 l-34 -76 52 -19 52 -20 -2 -158
c-2 -88 -6 -319 -9 -514 l-6 -355 47 -379 c50 -411 51 -395 -10 -396 -55 -1
-57 -7 -29 -110 13 -52 26 -95 28 -97 6 -6 606 -143 624 -143 15 1 98 111 259
344 l42 61 -28 303 c-24 258 -31 305 -47 323 -10 12 -108 98 -217 192 l-198
170 58 51 c32 28 108 97 170 154 132 121 120 77 128 449 l6 262 -33 5 c-18 3
-161 10 -318 16 -157 5 -333 13 -392 16 -60 4 -108 4 -108 2z m553 -245 l49
-6 -6 -66 c-3 -36 -8 -107 -12 -157 l-6 -91 -126 -108 -127 -108 -3 34 c-2 19
-14 144 -26 278 l-22 243 115 -6 c64 -4 138 -10 164 -13z m-104 -1017 c91 -74
187 -152 212 -173 l46 -38 7 -95 c3 -52 9 -133 12 -180 l5 -85 -83 -117 -83
-117 -112 -1 -113 0 0 25 c0 29 -56 774 -65 858 -3 31 -3 57 1 57 4 0 82 -60
173 -134z"/>
</g>
</svg>
