<?xml version="1.0" encoding="utf-8"?>
<!-- Generator: Adobe Illustrator 27.2.0, SVG Export Plug-In . SVG Version: 6.00 Build 0)  -->
<svg version="1.1" id="Layer_1" xmlns="http://www.w3.org/2000/svg" xmlns:xlink="http://www.w3.org/1999/xlink" x="0px" y="0px"
	 viewBox="0 0 25 24" style="enable-background:new 0 0 25 24;" xml:space="preserve">
<style type="text/css">
	.st0{fill:#1E4772;}
</style>
<path class="st0" d="M12.5,2c-5.5,0-10,4.5-10,10s4.5,10,10,10c5.5,0,10-4.5,10-10S18,2,12.5,2z M15.5,14.2l-2.9,1.7
	c-0.4,0.2-0.8,0.3-1.1,0.3c-0.4,0-0.8-0.1-1.1-0.3c-0.7-0.4-1.2-1.2-1.2-2v-3.3c0-0.8,0.4-1.6,1.2-2c0.7-0.4,1.6-0.4,2.3,0l2.9,1.7
	c0.7,0.4,1.1,1.2,1.1,2S16.2,13.8,15.5,14.2z"/>
</svg>
