<?xml version="1.0" standalone="no"?>
<!DOCTYPE svg PUBLIC "-//W3C//DTD SVG 20010904//EN"
 "http://www.w3.org/TR/2001/REC-SVG-20010904/DTD/svg10.dtd">
<svg version="1.0" xmlns="http://www.w3.org/2000/svg"
 width="512.000000pt" height="512.000000pt" viewBox="0 0 512.000000 512.000000"
 preserveAspectRatio="xMidYMid meet">

<g transform="translate(0.000000,512.000000) scale(0.100000,-0.100000)"
fill="#ffff" stroke="none">
<path d="M2345 5110 c-474 -53 -898 -249 -1238 -570 -535 -507 -766 -1230
-626 -1960 60 -309 231 -673 430 -914 28 -34 410 -421 850 -861 l799 -800 799
800 c440 440 822 827 850 861 85 103 180 253 250 395 288 581 294 1268 15
1849 -110 229 -231 399 -418 586 -327 327 -722 529 -1172 599 -119 19 -428 27
-539 15z m403 -301 c547 -59 1024 -348 1328 -804 445 -668 395 -1561 -122
-2175 -34 -41 -362 -374 -728 -740 l-666 -665 -661 660 c-364 363 -694 699
-733 746 -461 547 -556 1319 -242 1964 336 687 1071 1097 1824 1014z"/>
<path d="M2410 4513 c-249 -27 -517 -126 -721 -268 -117 -81 -310 -278 -388
-394 -114 -172 -196 -372 -238 -576 -27 -136 -24 -434 5 -571 66 -305 207
-567 421 -779 122 -122 244 -209 396 -284 135 -67 232 -101 379 -133 146 -32
446 -32 592 0 150 32 246 66 379 132 358 178 629 485 759 859 64 183 80 281
80 496 1 210 -11 293 -66 465 -74 234 -192 426 -377 611 -256 255 -545 396
-901 439 -80 9 -244 11 -320 3z m331 -308 c374 -56 703 -285 887 -618 93 -168
152 -391 152 -575 l0 -84 -182 4 c-177 3 -185 4 -235 31 -138 72 -195 178
-209 387 -6 83 4 213 22 299 l5 24 -193 -6 c-281 -7 -458 -46 -653 -144 -180
-90 -261 -157 -510 -425 -109 -118 -227 -168 -393 -168 l-95 0 6 128 c24 512
364 951 857 1107 169 53 362 67 541 40z m114 -902 c3 -32 11 -83 16 -113 48
-261 199 -442 446 -532 48 -17 89 -22 231 -26 94 -2 172 -8 172 -12 0 -4 -14
-40 -30 -81 -136 -329 -417 -591 -748 -698 -139 -45 -214 -56 -382 -56 -168 0
-242 11 -382 56 -332 108 -612 369 -748 698 -16 41 -30 78 -30 82 0 5 33 9 73
9 129 0 271 42 402 118 60 36 177 147 292 279 135 155 336 268 563 317 117 25
118 25 125 -41z"/>
</g>
</svg>
